<svg height="512" viewBox="0 0 96 96" width="512" xmlns="http://www.w3.org/2000/svg"><g id="Artichoke"><path d="m94.43 14.05a49.82 49.82 0 0 1 -11.75 21.64c-4.58 4.59-8.49 5-12.19 3.26-2.56-1.18-5-3.38-7.54-5.9-7-7-9.88-12.51-2.64-19.73 10.25-10.25 39.13-21.98 34.12.73z" fill="#93e39a"/><path d="m70.49 39c-2.56-1.18-5-3.38-7.54-5.9-7-7-9.88-12.51-2.64-19.73a49.86 49.86 0 0 1 21.52-11.78c6.27 9.92-3.25 28.99-11.34 37.41z" fill="#3ea77c"/><path d="m94.43 14.05a49.82 49.82 0 0 1 -11.75 21.64c-4.58 4.59-8.49 5-12.19 3.26-2.56-1.18-5-3.38-7.54-5.9-2.71-2.71-5-5.34-6.14-8.1 8.43-7.95 27.73-17.75 37.62-10.9z" fill="#3ea77c"/><path d="m74.44 40.9c-4.51 0-8.47-3.4-12.2-7.14-6-6-11.18-12.61-2.64-21.15 7.4-7.34 26.94-17.27 34-10.21s-2.94 26.73-10.21 34c-3.24 3.23-6.2 4.5-8.95 4.5zm-13.44-26.9c-6.63 6.63-4.32 11.37 2.63 18.32s11.71 9.29 18.37 2.68c3.87-3.86 7.83-10.35 10.1-16.52 2.53-6.86 2.57-12.2.12-14.65-5.65-5.63-23.75 2.74-31.22 10.17z" fill="#302d3d"/><path d="m78.71 12c-1.07 8-6.81 18.49-12.14 23.81s-9.55 5-13.71 2.45a34.85 34.85 0 0 1 -6-5.08c-3.1-3.1-5.7-6.1-6.54-9.31s0-6.56 3.91-10.43c9.69-9.69 37.14-21.36 34.48-1.44z" fill="#93e39a"/><path d="m52.86 38.26a34.85 34.85 0 0 1 -6-5.08c-3.1-3.1-5.7-6.1-6.54-9.31s0-6.56 3.91-10.43a50 50 0 0 1 15.84-9.94c6.39 9.13-.89 25.5-7.21 34.76z" fill="#61c57c"/><path d="m78.71 12c-1.07 8-6.81 18.49-12.14 23.81s-9.55 5-13.71 2.45a34.85 34.85 0 0 1 -6-5.08c-3.1-3.1-5.7-6.1-6.54-9.31 8.83-7.93 27.91-17.46 38.39-11.87z" fill="#61c57c"/><path d="m92 35.82a49.71 49.71 0 0 1 -9.83 15.59c-3.86 3.86-7.23 4.75-10.41 3.91s-6.22-3.45-9.32-6.55c-7-7-9.89-12.49-2.64-19.74 5.33-5.32 15.77-11 23.8-12.14 12.03-1.61 12.9 7.75 8.4 18.93z" fill="#93e39a"/><path d="m92 35.82a49.71 49.71 0 0 1 -9.83 15.59c-3.86 3.86-7.23 4.75-10.41 3.91-7.87 8.68-16.28 10.24-25.5 2.77a20.16 20.16 0 0 1 5.64-9.09c8.47-8.51 29.2-19.23 40.1-13.18z" fill="#61c57c"/><path d="m71.75 55.32c-7.86 8.68-16.27 10.24-25.49 2.77 1.51-6 6.78-10.69 11.85-14.21-3.26-4.51-4-9.15 1.68-14.85 5.33-5.32 15.77-11 23.8-12.14 5.57 10.52-3.91 29.53-11.84 38.43z" fill="#61c57c"/><path d="m58.33 41c-4.51 0-8.47-3.41-12.2-7.14-6-6-11.18-12.61-2.64-21.15 7.57-7.57 27.13-17.09 34-10.22 7.1 7.1-2.94 26.73-10.21 34-3.28 3.27-6.2 4.51-8.95 4.51zm-13.42-26.85c-6.63 6.63-4.32 11.37 2.63 18.32s11.69 9.27 18.32 2.64c3.87-3.87 7.83-10.35 10.1-16.53 2.53-6.85 2.57-12.19.12-14.64-5.5-5.5-23.6 2.64-31.17 10.21z" fill="#302d3d"/><path d="m73.92 56.62c-4.51 0-8.47-3.41-12.2-7.14-3-3-5.86-6.22-6.8-9.73-1-3.85.33-7.59 4.16-11.42 4.06-4.06 10.83-8.2 17.25-10.57 16-5.88 23 1.17 17.1 17.11-2.36 6.42-6.51 13.19-10.56 17.24-3.24 3.24-6.2 4.51-8.95 4.51zm-13.42-26.88c-6.76 6.76-4 11.64 2.63 18.32 6.95 6.94 11.69 9.27 18.32 2.64 3.87-3.87 7.83-10.35 10.1-16.52 2.53-6.86 2.57-12.2.12-14.65-5.62-5.62-23.67 2.76-31.17 10.21z" fill="#302d3d"/><path d="m57.38 14.86c-1.08 8.82-7.38 20.43-13.3 26.3-8.48 8.48-14.82 3.84-21.58-2.88-4.52-4.52-8.07-8.85-7.4-13.76.34-2.44 1.71-5 4.52-7.83 10.5-10.5 40.45-23.27 37.76-1.83z" fill="#76c893"/><path d="m57.38 14.86c-1.08 8.82-7.38 20.43-13.3 26.3-8.48 8.48-14.82 3.84-21.58-2.88-4.52-4.52-8.07-8.85-7.4-13.76 10.17-9.35 33.33-20.19 42.28-9.66z" fill="#44b993"/><path d="m79.89 77c-3.58 3.58-6.78 4.83-9.8 4.56-4.09-.39-7.88-3.56-11.78-7.47-6.76-6.76-11.37-13.09-2.88-21.59 5.88-5.88 17.49-12.22 26.31-13.3 21.26-2.67 8.84 27.08-1.85 37.8z" fill="#76c893"/><path d="m70.09 81.53c-4.09-.36-7.88-3.53-11.78-7.44-6.76-6.76-11.37-13.09-2.88-21.59 5.88-5.88 17.49-12.22 26.31-13.3 9.01 10.01-2.26 32.94-11.65 42.33z" fill="#44b993"/><path d="m77.56 36.22c-2.63 6.54-6.79 13.08-10.74 17-7 7-12.59 5.08-18.13.35a69.16 69.16 0 0 1 -6.69-6.65c-4.72-5.54-6.68-11.1.35-18.13 3.95-3.95 10.5-8.12 17-10.75 7.49-3 15-4 18.6-.42s2.63 11.11-.39 18.6z" fill="#76c893"/><path d="m69.44 31.53a3.06 3.06 0 0 0 5-1.47c1.41-5.07.93-8 .06-8.9-1.29-1.3-4.71-.91-7.59-.26a3 3 0 0 0 -2 4.08 16.28 16.28 0 0 0 4.53 6.55z" fill="#b3dc93"/><path d="m48.69 53.6c-1.15-1-2.3-2.07-3.46-3.23-7.58-7.58-10.86-13.6-2.88-21.58 3.95-3.95 10.5-8.12 17-10.75 4.42 10.11-3.77 26.88-10.66 35.56z" fill="#49af93"/><path d="m77.56 36.22c-2.63 6.54-6.79 13.08-10.74 17-8.49 8.52-14.82 3.91-21.59-2.85-1.16-1.16-2.23-2.3-3.23-3.45 8.67-6.92 25.44-15.07 35.56-10.7z" fill="#49af93"/><g fill="#302d3d"><path d="m35.06 46.76c-5.11 0-9.59-4.1-13.27-7.78-3.24-3.24-6.39-6.77-7.41-10.59-1.12-4.18.36-8.24 4.53-12.41 4.43-4.42 11.82-8.98 18.83-11.53 17.39-6.39 25 1.2 18.58 18.59-2.58 7-7.1 14.4-11.53 18.82-3.27 3.28-6.48 4.9-9.73 4.9zm-14.73-29.36c-7.4 7.39-4.53 12.76 2.88 20.17s12.79 10.29 20.17 2.88c4.23-4.24 8.58-11.34 11.07-18.1 2.77-7.54 2.8-13.41.1-16.12-6.2-6.23-26.04 2.98-34.22 11.17z"/><path d="m70.87 82.57c-5.11 0-9.59-4.1-13.27-7.78-6.55-6.55-12.16-13.71-2.88-23 4.43-4.42 11.82-8.95 18.83-11.53 8.42-3.1 14.89-3 18.22.36 7.48 7.48-2.92 28.8-11.17 37.05-3.28 3.33-6.48 4.9-9.73 4.9zm-14.74-29.36c-7.3 7.3-4.76 12.52 2.89 20.17 7.4 7.4 12.77 10.28 20.17 2.88 8.53-8.54 17.11-28.26 11.17-34.26-6.2-6.16-26.04 3-34.23 11.21z"/><path d="m57.79 58.86c-5.11 0-9.59-4.1-13.27-7.78-3.24-3.25-6.39-6.77-7.41-10.59-1.12-4.18.36-8.24 4.53-12.41 8.26-8.25 29.58-18.65 37.05-11.17 3.33 3.33 3.46 9.8.36 18.22-2.58 7.02-7.05 14.41-11.53 18.87-3.27 3.24-6.52 4.86-9.73 4.86zm-14.73-29.36c-7.4 7.39-4.53 12.76 2.88 20.17s12.78 10.27 20.17 2.88c4.24-4.24 8.58-11.34 11.07-18.11 2.82-7.53 2.82-13.44.1-16.11-6.06-6.06-25.94 2.88-34.22 11.17z"/><path d="m67.87 28.74a1 1 0 0 1 -.71-1.74l10.12-10.09a1 1 0 0 1 1.41 0 1 1 0 0 1 0 1.42l-10.11 10.11a1 1 0 0 1 -.71.3z"/><path d="m51.17 10.6a1 1 0 0 1 -.7-1.7l4.08-4.08a1 1 0 0 1 1.41 0 1 1 0 0 1 0 1.41l-4.08 4.08a1 1 0 0 1 -.71.29z"/><path d="m87 46.41a1 1 0 0 1 -.71-1.7l4.09-4.09a1 1 0 0 1 1.41 0 1 1 0 0 1 0 1.42l-4.08 4.08a1 1 0 0 1 -.71.29z"/><path d="m71.48 9.53a1 1 0 0 1 -.71-1.7l5.31-5.31a1 1 0 0 1 1.41 0 1 1 0 0 1 0 1.42l-5.3 5.3a1 1 0 0 1 -.71.29z"/><path d="m87.07 25.12a1 1 0 0 1 -.71-1.7l5.31-5.31a1 1 0 0 1 1.41 0 1 1 0 0 1 0 1.42l-5.3 5.3a1 1 0 0 1 -.71.29z"/><path d="m86.89 10.11a1 1 0 0 1 -.71-1.71l6-6a1 1 0 0 1 1.42 1.41l-6 6a1 1 0 0 1 -.71.3z"/></g><path d="m1 88.62 9.53-9.53 6.38 6.38-9.53 9.53" fill="#3ab67d"/><path d="m7.38 96a1 1 0 0 1 -.7-1.71l8.82-8.82-5-5-8.79 8.85a1 1 0 0 1 -1.42 0 1 1 0 0 1 0-1.41l9.53-9.53a1 1 0 0 1 1.41 0l6.39 6.39a1 1 0 0 1 0 1.41l-9.53 9.53a1 1 0 0 1 -.71.29z" fill="#302d3d"/><path d="m34.19 84.19a15.83 15.83 0 1 1 -4.82-25.67 15.84 15.84 0 0 1 4.82 25.67z" fill="#0d4364"/><path d="m17.47 80.5a8.82 8.82 0 0 1 -10.08-10.08 15.83 15.83 0 0 1 22-11.9 15.83 15.83 0 0 1 -11.92 21.98z" fill="#0d6164"/><path d="m53.57 34.61c-2.57 7.12-7.11 14.53-11.43 18.85-7 7-12.58 5.08-18.11.37a69.65 69.65 0 0 1 -7-7c-4.51-5.43-6.25-10.91.63-17.79 4.7-4.73 12.34-9.1 18.7-11.42 16.28-5.9 23.05.76 17.21 16.99z" fill="#3ab67d"/><path d="m53.57 34.61c-2.57 7.12-7.11 14.53-11.43 18.85-7 7-12.58 5.08-18.11.37a71.43 71.43 0 0 1 -6.79-6.83 57.18 57.18 0 0 1 17.28-10.32c5.78-2.25 13.19-4.1 19.05-2.07z" fill="#267a7d"/><path d="m24 53.83a71.49 71.49 0 0 1 -7-7c5.2-5.85 10.33-15.73 10.33-23a9.75 9.75 0 0 0 -.17-1.89 57.77 57.77 0 0 1 9.16-4.31c3.98 10.68-4.51 27.76-12.32 36.2z" fill="#267a7d"/><path d="m78 59.27c-2.56 7.07-7.09 14.38-11.37 18.66-7 7-12.52 5.1-18 .44a68 68 0 0 1 -6.84-6.84c-4.68-5.52-6.6-11.06.4-18.07 4.27-4.32 11.67-8.88 18.81-11.46 6.87-2.47 13.48-3.05 16.8.26s2.69 10.07.2 17.01z" fill="#3ab67d"/><path d="m48.58 78.37a68 68 0 0 1 -6.84-6.84c-4.68-5.52-6.6-11.06.4-18.07 4.32-4.32 11.72-8.88 18.86-11.46 3.65 10.69-4.74 27.92-12.42 36.37z" fill="#267a7d"/><path d="m78 59.27c-2.56 7.07-7.09 14.38-11.37 18.66-7 7-12.52 5.1-18 .44a68 68 0 0 1 -6.84-6.84c8.44-7.88 25.41-16.22 36.21-12.26z" fill="#267a7d"/><path d="m11.11 84.89a16.81 16.81 0 1 1 23.78 0 16.79 16.79 0 0 1 -23.78 0zm1.41-22.37a14.82 14.82 0 1 0 21 0 14.84 14.84 0 0 0 -21 0z" fill="#302d3d"/><path d="m33.13 59.07c-4.91 0-9.21-3.71-13.28-7.78-3.25-3.29-6.39-6.78-7.42-10.59-1.12-4.18.37-8.24 4.54-12.41 8.25-8.29 29.57-18.65 37.03-11.17s-2.9 28.8-11.15 37.05c-3.52 3.52-6.73 4.9-9.72 4.9zm-14.75-29.36c-7.38 7.42-4.48 12.8 2.88 20.17 7.65 7.64 12.86 10.19 20.17 2.88 8.57-8.54 17.12-28.28 11.17-34.22s-25.94 2.88-34.22 11.17z" fill="#302d3d"/><path d="m57.58 83.53c-5.1 0-9.56-4.07-13.27-7.77-6.54-6.55-12.16-13.72-2.88-23 4.43-4.43 11.82-8.95 18.83-11.53 8.42-3.1 14.89-3 18.22.36 7.52 7.47-2.91 28.79-11.17 37.05-3.31 3.27-6.48 4.89-9.73 4.89zm-14.73-29.36c-7.31 7.31-4.77 12.53 2.88 20.17 7.41 7.41 12.77 10.28 20.17 2.88 8.54-8.53 17.1-28.22 11.17-34.22-6.2-6.19-26.07 3-34.22 11.17z" fill="#302d3d"/><path d="m35.42 81.16c-5.81.66-12.37-5.63-16.09-10.09-3.16-3.53-5.32-7-4.89-10.89 1.31-11.63 32.05-27.35 40.19-19.18s-7.58 38.86-19.21 40.16z" fill="#93e39a"/><path d="m44.34 56.42a3.06 3.06 0 0 0 4.95-1.48c1.41-5.06.93-8 .06-8.9-1.29-1.29-4.71-.9-7.59-.25a3 3 0 0 0 -2 4.08 16.35 16.35 0 0 0 4.58 6.55z" fill="#caffbe"/><path d="m8.87 56.67c-11.87-22.31-.87-42.07 13.99-42.46 22.32-.59.19 44.27-13.99 42.46z" fill="#76c893"/><path d="m13.06 51.27c1 3-1.59 5.92-4.19 5.4-11.82-22.1-1-42.06 14-42.46a10.07 10.07 0 0 1 5.93 1.41c-12.69 1.25-22.23 16.79-15.74 35.65z" fill="#3aaa93"/><path d="m8.87 56.67a43.67 43.67 0 0 1 -4.12-10.81 11.75 11.75 0 0 1 5.76-2.44l.71-.09a37.92 37.92 0 0 0 1.84 7.94c1.02 2.98-1.59 5.92-4.19 5.4z" fill="#0b9987"/><path d="m81.39 72.74c-.38 14.73-20 26-42.46 14-1.81-14.19 43.07-36.3 42.46-14z" fill="#76c893"/><path d="m81.39 72.74c-.38 14.8-20 25.94-42.46 14a8 8 0 0 1 .47-3.69c22.29 9.51 40.69-3.74 38.53-18.27 2.24 1.45 3.56 4.01 3.46 7.96z" fill="#3aaa93"/><path d="m52 86.19a11.67 11.67 0 0 1 -2.25 4.67 44.16 44.16 0 0 1 -10.8-4.12 8 8 0 0 1 .47-3.69 38.82 38.82 0 0 0 12.58 3.14z" fill="#0b9987"/><path d="m34.58 82.21c-6.54 0-13.32-7.26-16-10.5-2.64-2.95-5.64-7-5.11-11.64 1.38-12.29 33-28.66 41.89-19.8 9 9.02-8.17 41.94-20.78 41.94zm-19.14-21.92c-.35 3 1.08 6.16 4.63 10.11 2.65 3.17 9.39 10.45 15.24 9.77 10.9-1.22 26.06-31 18.61-38.49s-37.26 7.69-38.48 18.61z" fill="#302d3d"/><path d="m8.74 57.66a1 1 0 0 1 -.74-.52c-6.32-11.79-6.87-24.35-1.49-33.59 3.72-6.39 9.67-10.16 16.33-10.34 24.05-.6 1.36 46.4-14.1 44.45zm.76-1.94c13.08.42 33.6-41.11 13.39-40.51-5.95.16-11.29 3.56-14.65 9.35-4.95 8.51-4.48 20.13 1.26 31.16z" fill="#302d3d"/><path d="m38.46 87.62a1 1 0 0 1 -.52-.75c-1.94-15.49 45.06-38.11 44.45-14.1-.39 15.81-21.14 27.03-43.93 14.85zm1.42-1.51c11 5.73 22.64 6.22 31.14 1.27 5.8-3.37 9.22-8.72 9.37-14.66.54-20.22-40.96.37-40.51 13.39z" fill="#302d3d"/><path d="m45.23 51.37a1 1 0 0 1 -.71-1.7l9.4-9.4a1 1 0 0 1 1.42 0 1 1 0 0 1 0 1.41l-9.4 9.4a1 1 0 0 1 -.71.29z" fill="#302d3d"/><path d="m20.61 26.75a1 1 0 0 1 -.71-1.75l9.26-9.26a1 1 0 0 1 1.42 1.42l-9.27 9.26a1 1 0 0 1 -.7.33z" fill="#302d3d"/><path d="m69.7 75.84a1 1 0 0 1 -.7-1.71l9.26-9.26a1 1 0 0 1 1.42 1.42l-9.28 9.26a1 1 0 0 1 -.7.29z" fill="#302d3d"/><path d="m43.71 28.43a1 1 0 0 1 -.7-1.71l9.59-9.6a1 1 0 1 1 1.4 1.42l-9.6 9.59a1 1 0 0 1 -.69.3z" fill="#302d3d"/><path d="m68.13 52.85a1 1 0 0 1 -.7-1.71l9.57-9.6a1 1 0 0 1 1.44 1.46l-9.6 9.59a1 1 0 0 1 -.71.26z" fill="#302d3d"/><path d="m37.65 89.64a57.53 57.53 0 0 1 -8-4.94 6.3 6.3 0 0 1 2.19-11.14c10.26-2.73 16.74.61 15.41 10.86a6.71 6.71 0 0 1 -9.6 5.22z" fill="#0b9987"/><path d="m10.92 66a56.25 56.25 0 0 1 -5-8 6.7 6.7 0 0 1 5.2-9.57c10.27-1.36 13.69 5 10.9 15.42a6.31 6.31 0 0 1 -11.1 2.15z" fill="#0b9987"/><path d="m37.2 90.54a57.13 57.13 0 0 1 -8.16-5 7.3 7.3 0 0 1 2.52-12.91c10.83-2.88 18.1.87 16.66 12a7.71 7.71 0 0 1 -11.02 5.91zm-5.12-16a5.3 5.3 0 0 0 -1.86 9.37 55.5 55.5 0 0 0 7.88 4.86 5.4 5.4 0 0 0 5.09-.07 5.82 5.82 0 0 0 3-4.39c1.3-9.66-4.68-12.31-14.11-9.79z" fill="#302d3d"/><path d="m10.11 66.59a57.37 57.37 0 0 1 -5-8.19 7.7 7.7 0 0 1 6-11c11.21-1.48 14.91 5.84 12 16.67a7.31 7.31 0 0 1 -13 2.52zm1.18-17.22a5.7 5.7 0 0 0 -4.44 8.13 55.56 55.56 0 0 0 4.88 7.91 5.3 5.3 0 0 0 9.36-1.87c2.52-9.35.02-15.47-9.8-14.17z" fill="#302d3d"/><path d="m22.56 80.42a93.81 93.81 0 0 1 -7.39-7.42 8 8 0 0 1 3.38-12.87c16.2-5.76 22.55 1 16.9 16.91a8 8 0 0 1 -12.89 3.38z" fill="#3ab67d"/><path d="m21.9 81.16a92.74 92.74 0 0 1 -7.47-7.47 9 9 0 0 1 3.78-14.48c16.69-5.94 24.24 1.18 18.19 18.18a9 9 0 0 1 -14.5 3.77zm1.33-1.49a7 7 0 0 0 11.28-3c1.52-4.27 3.53-12-.06-15.56s-11.3-1.59-15.57-.07a7 7 0 0 0 -3 11.27 94.35 94.35 0 0 0 7.35 7.36z" fill="#302d3d"/><path d="m27 69.64a1 1 0 0 1 -.7-1.7l8.19-8.2a1 1 0 0 1 1.41 0 1 1 0 0 1 0 1.42l-8.19 8.19a1 1 0 0 1 -.71.29z" fill="#302d3d"/></g></svg>