<svg enable-background="new 0 0 512 512" height="512" viewBox="0 0 512 512" width="512" xmlns="http://www.w3.org/2000/svg"><g id="_x30_2_Oregano"><g><path d="m427.38 167.048c-13.074 31.027-35.711 57.891-63.746 76.495-32.914-9.562-68.69-9.107-101.408 1.105.326.781.651 1.496.912 2.276-3.383-8.325-7.481-16.262-12.164-23.938-12.228-4.032-25.107-6.505-38.312-7.48-12.099-.976-24.458-.651-36.687.91-5.984-35.19-1.236-72.266 14.051-104.53 21.01-44.231 61.534-78.771 108.628-92.496 37.206-10.798 76.495-8.846 115.328-4.619 14.245 1.497 25.498 12.88 26.54 27.19 3.185 43.128 3.9 84.693-13.142 125.087z" fill="#3eb655"/><path d="m427.358 167.072c-13.062 31.016-35.7 57.87-63.698 76.448-32.942-9.523-68.694-9.107-101.427 1.145.312.781.624 1.457.885 2.238-3.382-8.327-7.442-16.237-12.125-23.939-3.487-1.145-6.974-2.133-10.564-3.018 23.523-10.148 47.201-23.262 70.203-39.238 62.501-43.298 107.048-98.566 126.511-150.399 1.926 3.539 3.071 7.442 3.383 11.657 3.173 43.142 3.901 84.671-13.168 125.106z" opacity=".1"/><path d="m26.618 345.828c11.563-45.725 42.828-86.107 84.168-108.815s95.417-28.807 140.19-14.006c25.72 41.668 32.68 94.496 18.609 141.46-14.081 46.899-48.917 87.168-93.394 107.856-35.146 16.298-74.278 20.31-113.304 22.001-14.307.676-27.152-8.875-30.345-22.863-9.671-42.149-16.662-83.127-5.924-125.633z" fill="#3eb655"/><path d="m269.57 364.464c-14.051 46.889-48.918 87.168-93.361 107.881-35.179 16.289-74.314 20.296-113.345 21.962-8.066.364-15.664-2.498-21.337-7.65 62.241-4.423 130.987-51.989 174.805-127.812 24.407-42.31 37.365-86.96 39.187-127.917 21.961 40.278 27.27 89.509 14.051 133.536z" opacity=".1"/><path d="m489.695 468.408c-.781 14.311-11.578 26.084-25.824 27.905-42.93 5.334-84.365 8.131-125.605-6.829-38.378-13.985-71.227-42.151-91.39-77.731 9.952-14.505 17.692-30.441 22.701-47.289 8.845-29.661 9.366-61.664 2.016-91.715-2.342-9.628-5.464-19.059-9.367-28.101 38.638-12.099 81.634-10.472 119.101 5.009 45.272 18.733 81.829 57.436 97.895 103.814 12.684 36.622 12.684 75.909 10.473 114.937z" fill="#3eb655"/><path d="m489.703 468.389c-.312 5.36-1.978 10.305-4.684 14.52-12.646-55.319-52.353-117.716-112.772-169.081-34.972-29.768-72.493-52.093-108.87-66.301-.312-.988-.728-1.925-1.145-2.862 38.614-12.125 81.652-10.512 119.069 4.996 45.276 18.734 81.86 57.453 97.941 103.821 12.646 36.586 12.646 75.876 10.461 114.907z" opacity=".1"/><path d="m63.112 499.525c38.268-1.659 78.722-5.532 115.272-22.483 26.887-12.505 50.347-32.045 68.101-55.809 21.022 33.386 53.429 59.814 90.009 73.144 42.272 15.337 84.143 12.553 128.039 7.097 16.669-2.132 29.436-15.917 30.355-32.782 2.175-38.337 2.373-79.034-10.749-116.924-16.512-47.658-54.201-87.628-100.824-106.92-2.709-1.119-5.459-2.15-8.231-3.128 25.041-18.865 45.142-44.291 57.095-72.651l-.005.003c18.026-42.725 16.568-86.409 13.534-127.487-1.22-16.763-14.337-30.216-31.164-31.984-38.08-4.147-78.661-6.436-117.346 4.798-48.417 14.108-90.243 49.718-111.878 95.262-14.789 31.219-20.04 67.292-15.186 102.192-21.661 3.253-42.875 10.176-61.854 20.602-42.441 23.309-74.854 65.216-86.711 112.099-11.359 44.961-3.314 87.923 5.9 128.069 3.694 16.18 18.49 27.682 35.643 26.902zm411.189-144.352c12.538 36.185 12.309 75.665 10.2 112.94v.01c-.651 11.849-9.6 21.533-21.269 23.027-39.625 4.922-81.771 8.467-123.18-6.553-35.788-13.041-67.348-39.419-87.041-72.639 20.347-30.842 30.78-67.867 28.565-107.081-.378-6.775-1.131-13.736-2.326-20.744 19.362 13.074 37.448 27.941 53.962 44.402 6.449 25.678 8.558 52.067 6.241 78.456-.254 2.861 1.865 5.387 4.726 5.639 2.973.24 5.396-1.949 5.641-4.729 1.914-21.759.912-43.513-2.894-64.905 16.452 18.265 31.183 38.057 43.637 59.233 1.463 2.485 4.659 3.3 7.125 1.847 2.48-1.456 3.303-4.645 1.85-7.123-18.689-31.777-42.136-60.722-69.24-85.778 19.187 3.838 38.404 2.664 55.396-2.455 2.749-.831 4.31-3.733 3.476-6.485-.828-2.749-3.7-4.32-6.485-3.481-38.499 11.606-69.193-3.848-71.695-4.282-11.128-8.981-22.774-17.33-34.867-24.999-1.934-7.563-4.6-15.622-6.873-21.425 35.349-9.715 75.794-7.754 110.086 6.417 43.915 18.172 79.419 55.82 94.965 100.708zm-279.577-241.052c20.379-42.896 59.776-76.44 105.378-89.73 36.952-10.726 76.293-8.474 113.336-4.442 11.831 1.243 21.04 10.66 21.894 22.397 2.943 39.816 4.381 82.086-12.741 122.68-.005 0-.005 0-.005.003-12.202 28.959-33.408 54.743-59.853 72.849-31.595-8.58-66.042-8.453-97.632.486-2.144-4.679-6.164-12.311-9.687-18.087-.645-1.055-1.642-1.845-2.81-2.231-5.554-1.833-15.59-4.441-24.275-5.888 19.483-8.15 41.882-9.018 61.858-1.969 2.724.963 5.682-.465 6.642-3.174.955-2.711-.468-5.684-3.176-6.64-19.863-7.015-41.876-7.078-61.845-.635 10.717-12.717 22.335-24.646 34.648-35.802 25.961-5.123 52.384-5.883 78.582-2.24 2.861.427 5.473-1.591 5.87-4.434.396-2.849-1.591-5.476-4.437-5.872-21.617-3.014-43.376-3.119-64.929-.407 19.103-15.533 39.626-29.259 61.346-40.596 2.546-1.332 3.532-4.475 2.206-7.023-1.332-2.544-4.477-3.53-7.023-2.206-32.668 17.053-62.843 39.157-89.341 65.085 4.655-18.185 4.977-37.596.506-55.706-.686-2.788-3.502-4.495-6.297-3.804-2.795.689-4.498 3.509-3.807 6.299 9.902 40.114-7.437 68.302-7.991 71.692-7.303 8.169-14.299 16.608-20.864 25.383-9.901-.619-19.93-.47-29.933.494-4.616-32.961.43-67.035 14.38-96.482zm-163.06 232.981c11.16-44.133 41.673-83.583 81.629-105.527 37.69-20.7 87.686-27.556 130.46-15.288-5.122 13.09-11.049 25.897-17.695 38.355-.165.104-.355.14-.511.266-19.317 15.615-45.429 22.168-69.838 17.536-2.856-.559-5.55 1.319-6.083 4.142-.539 2.823 1.316 5.547 4.142 6.083 20.592 3.905 42.221.759 61.346-8.844-8.685 14.177-18.324 27.793-28.82 40.706-24.916 9.014-50.969 13.785-77.473 14.138-2.871.038-5.169 2.399-5.133 5.273.041 2.851 2.363 5.135 5.204 5.135h.071c21.854-.293 43.41-3.489 64.326-9.441-16.547 18.284-34.83 34.938-54.579 49.42-2.317 1.697-2.815 4.955-1.118 7.273 1.692 2.302 4.94 2.83 7.278 1.118 29.669-21.758 56.183-48.217 78.468-77.849-1.857 18.69.759 37.932 7.918 55.157 1.111 2.67 4.17 3.909 6.805 2.808 2.653-1.103 3.913-4.15 2.81-6.802-15.36-36.937-3.117-69.099-2.97-71.86 13.282-20.301 24.58-41.842 33.675-64.174 11.686 21.985 18.329 46.046 19.664 71.416 3.731 72.132-38.935 134.343-97.24 161.46-34.904 16.189-74.138 19.912-111.354 21.525-11.892.645-22.412-7.361-25.029-18.829-8.931-38.915-16.747-80.481-5.953-123.197z" fill="#25294f"/></g></g></svg>