<svg height="512" viewBox="0 0 96 96" width="512" xmlns="http://www.w3.org/2000/svg"><g id="Parsley"><path d="m82.78 24.48 11.11-2.72-8.03-4.27 3.64-10.99-10.99 3.64-4.27-8.03-2.72 11.11-4.57-7.96-5.44 29.23 29.23-5.44z" fill="#0b9987"/><path d="m68.89 16.69 3.56 6.2-.34.08.58.34.34.58.08-.34 6.2 3.56-12.8 2.38zm6.74-3.44.93 1.75 6.64-2.2-2.2 6.64 1.75.93-9.43 2.31z" fill="#0bdf87"/><path d="m61.51 35.49a1 1 0 0 1 -.7-1.71l19-19a1 1 0 1 1 1.42 1.42l-19 19a1 1 0 0 1 -.72.29z" fill="#302d3d"/><path d="m68.24 28.76a1 1 0 0 1 -.25-2l7.09-1.89a1 1 0 0 1 .51 1.94c-7.74 2.09-7.16 1.95-7.35 1.95z" fill="#302d3d"/><path d="m73 24a1 1 0 0 1 -1-1.2l1.39-6.71a1 1 0 0 1 1.18-.77 1 1 0 0 1 .78 1.18l-1.35 6.69a1 1 0 0 1 -1 .81z" fill="#302d3d"/><path d="m25.78 41.63 5.94-9.79-8.7 2.66-5.2-10.34-5.2 10.34-8.69-2.66 5.93 9.79-8.86-2.4 16.82 24.5 16.82-24.5z" fill="#0b9987"/><path d="m10.45 45.93 6.91 1.87-.19.3.65-.18.65.18-.18-.3 6.9-1.87-7.37 10.74zm2.34-7.19 1.89.58 3.14-6.25 3.18 6.25 1.89-.58-5 8.29z" fill="#0bdf87"/><path d="m17.82 64.73a1 1 0 0 1 -1-1v-26.87a1 1 0 0 1 2 0v26.87a1 1 0 0 1 -1 1z" fill="#302d3d"/><path d="m17.82 55.21a1 1 0 0 1 -.86-1.5l3.68-6.35a1 1 0 0 1 1.73 1l-3.68 6.35a1 1 0 0 1 -.87.5z" fill="#302d3d"/><path d="m17.82 48.47a1 1 0 0 1 -.82-.47l-3.78-5.7a1 1 0 0 1 .29-1.38 1 1 0 0 1 1.39.28l3.76 5.72a1 1 0 0 1 -.84 1.55z" fill="#302d3d"/><path d="m73.59 54.64 3.82 10.79 3.44-8.42 11.3 2.52-4.72-10.56 7.57-5.05-11.33-1.6 7.46-5.34-29.62-2.49 8.33 28.53z" fill="#0b9987"/><path d="m74.44 45.06 9.61 1.35-1.65 1.1 2.85 6.39-6.82-1.53-.75 1.83zm-7.44-6.06 13 1.09-5.81 4.16-.19-.37-.28.62-.54.39h.35l-2.93 6.53z" fill="#0bdf87"/><path d="m82.32 52.5c-.52 0 1.2 1.27-21.44-17.24a1 1 0 1 1 1.27-1.55l20.8 17a1 1 0 0 1 -.63 1.79z" fill="#302d3d"/><path d="m71.47 48.38a1 1 0 0 1 -.94-.65l-2.53-6.86a1 1 0 1 1 1.87-.71l2.53 6.84a1 1 0 0 1 -.93 1.38z" fill="#302d3d"/><path d="m80.91 46.49-6.91-.72a1 1 0 0 1 .21-2l6.8.71a1 1 0 0 1 -.1 2z" fill="#302d3d"/><path d="m41.36 22.41-10.79-3.82 8.42-3.44-2.52-11.3 10.56 4.72 5.05-7.57 1.6 11.33 5.34-7.46 2.49 29.62-28.53-8.33z" fill="#0b9987"/><path d="m44.54 25.37 6.53-2.93v.35l.38-.54.62-.28-.33-.11 4.26-5.86 1 13zm-2.75-7 1.84-.75-1.53-6.87 6.39 2.85 1.1-1.6 1.35 9.61z" fill="#0bdf87"/><path d="m61.51 35.49a1 1 0 0 1 -.77-.37l-17-20.81a1 1 0 1 1 1.54-1.26l17 20.8a1 1 0 0 1 -.77 1.64z" fill="#302d3d"/><path d="m55.49 28.12c-.26 0 .28.17-7.22-2.65a1 1 0 1 1 .73-1.87l6.87 2.58a1 1 0 0 1 -.38 1.94z" fill="#302d3d"/><path d="m51.22 22.9a1 1 0 0 1 -1-.9l-.71-6.81a1 1 0 0 1 .89-1.1 1 1 0 0 1 1.1.9l.7 6.81a1 1 0 0 1 -.98 1.1z" fill="#302d3d"/><path d="m4.47 92.52a1 1 0 0 1 -.7-1.7l57-57a1 1 0 0 1 1.41 1.41c-60.92 60.92-57.06 57.29-57.71 57.29z" fill="#302d3d"/><path d="m4.31 92.69a1 1 0 0 1 -.7-1.69 44.29 44.29 0 0 0 13.21-31.7 1 1 0 0 1 2 0 46.24 46.24 0 0 1 -13.82 33.09 1 1 0 0 1 -.69.3z" fill="#302d3d"/><path d="m54.38 70.22 9.78-5.94-2.66 8.7 10.34 5.2-10.34 5.2 2.66 8.69-9.78-5.93 2.39 8.86-24.5-16.82 24.5-16.82z" fill="#0b9987"/><path d="m39.33 78.18 10.74-7.37-1.87 6.9-.3-.18.18.65-.18.64.3-.18 1.87 6.91zm9.64 0 8.29-5-.58 1.82 6.25 3.14-6.25 3.14.58 1.89z" fill="#0bdf87"/><g fill="#302d3d"><path d="m61.51 35.49a1 1 0 0 1 -1-1.19l5.49-29.22a1 1 0 0 1 1.86-.32l3.32 5.8 2.13-8.69a1 1 0 0 1 1.85-.23l3.84 7.29 10.18-3.37a1 1 0 0 1 1.26 1.26l-3.37 10.18 7.29 3.87a1 1 0 0 1 -.23 1.85l-8.69 2.13 5.8 3.33a1 1 0 0 1 -.32 1.82c-31.39 5.87-29.27 5.49-29.41 5.49zm5.92-27.37-4.67 25.12 25.12-4.67-5.6-3.22a1 1 0 0 1 .26-1.84l8.56-2.1-5.71-3a1 1 0 0 1 -.48-1.2l3-9.1-9.1 3a1 1 0 0 1 -1.2-.48l-3-5.71-2.1 8.56a1 1 0 0 1 -1.84.26z"/><path d="m17 64.3-16.82-24.51a1 1 0 0 1 1.08-1.53l6.45 1.74-4.64-7.64a1 1 0 0 1 1.15-1.48l7.89 2.42 4.82-9.59a1 1 0 0 1 1.78 0l4.82 9.59 7.89-2.42a1 1 0 0 1 1.15 1.48l-4.64 7.64 6.45-1.75a1 1 0 0 1 1.09 1.53l-16.82 24.52a1 1 0 0 1 -1.65 0zm-13.64-23.4 14.46 21.1 14.46-21.1-6.28 1.69a1 1 0 0 1 -1.11-1.48l4.57-7.54-6.19 1.89a1 1 0 0 1 -1.14-.46l-4.31-8.56-4.3 8.56a1 1 0 0 1 -1.19.51l-6.19-1.94 4.58 7.54a1 1 0 0 1 -1.12 1.48z"/><path d="m76.47 65.77-3-8.44-2.73 6.1a1 1 0 0 1 -1.87-.13l-8.32-28.53a1 1 0 0 1 1.05-1.28l29.62 2.51a1 1 0 0 1 .5 1.81l-5.44 3.89 8.86 1.25a1 1 0 0 1 .41 1.82l-6.86 4.58 4.37 9.8a1 1 0 0 1 -1.13 1.38l-10.47-2.36-3.13 7.64a1 1 0 0 1 -1.86-.04zm-1.94-11.46 3 8.32 2.45-6a1 1 0 0 1 1.09-.63l9.36 2.09-3.91-8.76a1 1 0 0 1 .36-1.24l5.38-3.59-8.73-1.23a1 1 0 0 1 -.44-1.8l5.25-3.76-25.46-2.1 7.12 24.52 2.64-5.9a1 1 0 0 1 1.89.08z"/><path d="m61.51 35.49c-.21 0 1.56.49-28.81-8.37a1 1 0 0 1 -.13-1.87l6.1-2.73-8.44-3a1 1 0 0 1 0-1.86l7.64-3.13-2.38-10.46a1 1 0 0 1 1.38-1.13l9.8 4.37 4.58-6.87a1 1 0 0 1 1.82.42l1.25 8.86 3.89-5.44a1 1 0 0 1 1.81.5l2.49 29.62a1 1 0 0 1 -1 1.09zm-25.64-9.49 24.52 7.16-2.14-25.5-3.76 5.25a1 1 0 0 1 -1.8-.44l-1.23-8.73-3.59 5.38a1 1 0 0 1 -1.24.36l-8.76-3.91 2.13 9.36a1 1 0 0 1 -.59 1.14l-6 2.45 8.32 2.95a1 1 0 0 1 .07 1.85z"/><path d="m56.77 96c-.45 0 1.31 1.11-25.07-17a1 1 0 0 1 0-1.65l24.51-16.82a1 1 0 0 1 1.53 1.09l-1.74 6.45 7.65-4.64a1 1 0 0 1 1.48 1.15l-2.43 7.89 9.59 4.81a1 1 0 0 1 0 1.79l-9.59 4.82 2.42 7.89a1 1 0 0 1 -1.48 1.15l-7.64-4.64 1.75 6.45a1 1 0 0 1 -.98 1.26zm-22.77-17.82 21.1 14.46-1.69-6.24a1 1 0 0 1 1.48-1.12l7.54 4.58-1.89-6.19a1 1 0 0 1 .51-1.19l8.56-4.3-8.56-4.31a1 1 0 0 1 -.51-1.18l1.89-6.19-7.54 4.57a1 1 0 0 1 -1.48-1.07l1.69-6.24z"/><path d="m59.14 79.18h-26.87a1 1 0 0 1 0-2h26.87a1 1 0 0 1 0 2z"/><path d="m41.79 79.18a1 1 0 0 1 -.51-1.87l6.35-3.68a1 1 0 1 1 1 1.73c-6.86 3.98-6.46 3.82-6.84 3.82z"/><path d="m54.25 82.94c-.43 0-.1.13-6.27-3.93a1 1 0 0 1 -.29-1.38 1 1 0 0 1 1.39-.29l5.72 3.76a1 1 0 0 1 -.55 1.84z"/><path d="m4.31 92.69a1 1 0 0 1 -.7-1.69 46.25 46.25 0 0 1 33.09-13.82 1 1 0 0 1 0 2 44.31 44.31 0 0 0 -31.7 13.21 1 1 0 0 1 -.69.3z"/><path d="m40.44 56.56a1 1 0 0 1 -1-1.2l2.56-12.57a1 1 0 0 1 2 .4l-2.58 12.57a1 1 0 0 1 -.98.8z"/><path d="m34.64 62.36a1 1 0 0 1 -.12-2l16.22-2a1 1 0 0 1 .25 2c-17.19 2.11-16.25 2-16.35 2z"/></g></g></svg>