<svg height="512" viewBox="0 0 96 96" width="512" xmlns="http://www.w3.org/2000/svg"><g id="Peas"><path d="m88.05 17a2.45 2.45 0 0 1 -3.86 2l-15.13-10.94a3.9 3.9 0 1 1 5-5.94l13.26 13.09a2.46 2.46 0 0 1 .73 1.79z" fill="#3ab67d"/><path d="m85.89 17.07a1.26 1.26 0 0 1 -1.7 1.86c-20.35-14.62-14.01-10-15.19-10.93a2.09 2.09 0 0 1 .2-3.43 3.9 3.9 0 0 1 4.68.6c.19.22 8.53 8.43 12.01 11.9z" fill="#3a897d"/><path d="m85.61 20.38a3.47 3.47 0 0 1 -2-.64l-15.14-10.87a4.89 4.89 0 1 1 6.29-7.46l13.24 13.09a3.43 3.43 0 0 1 -2.39 5.88zm-14.28-18.38a2.89 2.89 0 0 0 -1.69 5.24c.1 0-1.16-.83 15.13 10.87a1.44 1.44 0 0 0 1.85-2.19l-13.26-13.09a2.91 2.91 0 0 0 -2.03-.83z" fill="#302d3d"/><path d="m64.63 24.32 2.69-4.32a20.29 20.29 0 0 1 10.61-8.4 1.89 1.89 0 0 1 1.24 3.57 8.25 8.25 0 0 0 -5.31 6l-1.33 6.15z" fill="#3a617d"/><path d="m72.53 28.37c-.27 0 .4.23-8.26-3.12a1 1 0 0 1 -.48-1.46l2.68-4.3a21.27 21.27 0 0 1 11.14-8.81 2.88 2.88 0 0 1 1.89 5.45 7.27 7.27 0 0 0 -4.66 5.3l-1.33 6.15a1 1 0 0 1 -.98.79zm-6.41-4.55 5.68 2.18 1.08-5a9.27 9.27 0 0 1 6-6.76.9.9 0 0 0 .59-.84.89.89 0 0 0 -1.17-.84 19.27 19.27 0 0 0 -10.09 8z" fill="#302d3d"/><path d="m75.14 63.71c-4.58 14.67-15.58 25.22-21.86 30.29a4.48 4.48 0 0 1 -7-1.77c-4.91-12.04-7.28-26.23-3.44-38.6 4.66-14.94 17.61-25.1 24.77-29.76a4.5 4.5 0 0 1 6.77 2.52c3.51 11.84 4.48 25.4.76 37.32z" fill="#3ab67d"/><path d="m76.64 36.47c-.3-1.92-1.75-9.58-2.78-11.22a4.51 4.51 0 0 0 -6.25-1.38c-7.16 4.66-20.11 14.82-24.77 29.76-3.84 12.37-1.47 26.55 3.47 38.6a4.48 4.48 0 0 0 7 1.77c6.28-5.07 17.28-15.62 21.86-30.29 2.99-9.71 2.69-19.48 1.47-27.24zm-28.85 48a8.57 8.57 0 0 1 3.12-9.43 61.85 61.85 0 0 0 8.49-7.4.86.86 0 0 1 1.42.9c-4.1 10.5-6.44 10.25-9.87 18.47a1.26 1.26 0 0 1 -2.35-.01c-.3-.87-.6-1.69-.81-2.49z" fill="#3a897d"/><path d="m75.77 61.5c3-11.42 1.87-24.13-1.39-35.11a4.51 4.51 0 0 0 -6.77-2.52c-7.16 4.66-20.11 14.82-24.77 29.76a41.55 41.55 0 0 0 -1.62 7.87z" fill="#3a667d"/><path d="m75.14 63.71c-4.58 14.67-15.58 25.22-21.86 30.29a4.51 4.51 0 0 1 -4.56.65c.69.11 1.52-.35 2.28-1.37a103.52 103.52 0 0 0 21.11-67.6 2.67 2.67 0 0 0 -1.11-2.42 4.48 4.48 0 0 1 3.38 3.14c2.29 7.74 5.33 22.65.76 37.31z" fill="#99d98c"/><path d="m75.14 63.71c-4.58 14.67-15.58 25.22-21.86 30.29a4.51 4.51 0 0 1 -4.56.65c.69.11 1.52-.35 2.28-1.37a103.31 103.31 0 0 0 21.11-67.6 2.67 2.67 0 0 0 -1.11-2.42 4.48 4.48 0 0 1 3.38 3.14c2.29 7.74 5.33 22.65.76 37.31z" fill="#49c58c"/><path d="m54.4 88.48a102 102 0 0 0 17.77-57.2c4.65 22.21-.55 40.77-17.77 57.2z" fill="#99d98c"/><path d="m45.39 92.61c-3.39-8.14-8.25-24.06-3.51-39.28s17.82-25.51 25.19-30.33a5.51 5.51 0 0 1 8.27 3.08c2.29 7.74 5.42 23 .75 37.9s-15.9 25.7-22.18 30.76a5.47 5.47 0 0 1 -8.52-2.13zm22.77-67.9c.62 0-18.49 10.38-24.37 29.22-4.56 14.61.2 30 3.45 37.92a3.47 3.47 0 0 0 5.41 1.37c6.11-4.93 17-15.35 21.53-29.81s1.46-29.22-.75-36.73a3.51 3.51 0 0 0 -5.27-1.97z" fill="#302d3d"/><path d="m48.33 95.57a1 1 0 0 1 .54-1.91c.28 0 .79-.25 1.33-1a102.5 102.5 0 0 0 20.91-67c0-1-.38-1.48-.55-1.57a1 1 0 0 1 .65-1.87 5.49 5.49 0 0 1 4.13 3.83c2.28 7.74 5.41 22.94.75 37.9-4.67 15-15.9 25.7-22.19 30.77a5.5 5.5 0 0 1 -5.57.85zm24.79-69.57a104.42 104.42 0 0 1 -21.12 67.64 3.13 3.13 0 0 0 .67-.42c6.1-4.93 17-15.35 21.53-29.81 4.49-14.41 1.44-29.21-.78-36.73a3.61 3.61 0 0 0 -.3-.68z" fill="#302d3d"/><path d="m68.28 21.27a5.1 5.1 0 0 1 5.46 6.09c-1.78 9-6.57 25.5-18.86 37.79s-28.88 17.08-37.82 18.85a5.08 5.08 0 0 1 -6.06-5.42c.9-9.61 4.26-28 16.81-40.51s30.85-15.9 40.47-16.8z" fill="#3ab67d"/><path d="m48.72 95.65a2.25 2.25 0 0 1 -1.57-.79 1 1 0 0 1 1.35-1.46 2.3 2.3 0 0 0 .58.31 1 1 0 0 1 -.36 1.94z" fill="#302d3d"/><path d="m10 78.48c.92-9.89 4.37-28.39 17.09-41.12s31.21-16.16 41.1-17.09a6.1 6.1 0 0 1 6.53 7.28c-1.78 8.94-6.62 25.8-19.13 38.3s-29.39 17.37-38.34 19.15a6.06 6.06 0 0 1 -7.25-6.52zm58.37-56.21c-9.62.9-27.59 4.24-39.85 16.51s-15.62 30.22-16.52 39.89a4.07 4.07 0 0 0 4.87 4.33c8.72-1.7 25.13-6.41 37.31-18.56s16.82-28.56 18.58-37.28a4.09 4.09 0 0 0 -4.39-4.89c-.12-1.27-.13-1.37 0 0z" fill="#302d3d"/><path d="m24.27 74.21a9.56 9.56 0 1 1 0-13.52 9.57 9.57 0 0 1 0 13.52z" fill="#b6dc9a"/><path d="m27 66a9.58 9.58 0 0 1 -15.06 2 9.4 9.4 0 0 1 -2.69-5.35c4.61-7.99 16.43-5.33 17.75 3.35z" fill="#e8ff9a"/><path d="m17.51 78a10.56 10.56 0 1 1 7.49-18 10.57 10.57 0 0 1 -7.49 18zm-8.51-10.55a8.56 8.56 0 1 0 14.61-6.06 8.57 8.57 0 0 0 -14.61 6.06z" fill="#302d3d"/><path d="m34.65 55.29a9.56 9.56 0 1 1 -16.32-6.89 9.57 9.57 0 0 1 16.32 6.89z" fill="#b6dc9a"/><path d="m34.65 55.29a9.56 9.56 0 0 1 -18.27-4.09 9.68 9.68 0 0 1 1.95-2.8 9.57 9.57 0 0 1 16.32 6.89z" fill="#e8ff9a"/><path d="m25.09 65.72a10.56 10.56 0 1 1 7.46-18 10.56 10.56 0 0 1 -7.46 18zm-8.56-10.56a8.56 8.56 0 1 0 14.61-6 8.57 8.57 0 0 0 -14.61 6z" fill="#302d3d"/><path d="m40.45 50.68a11 11 0 1 1 0-15.6 11 11 0 0 1 0 15.6z" fill="#b6dc9a"/><path d="m39.68 51.38a11 11 0 0 1 -9.68-19.2 11 11 0 0 1 9.73 19.2z" fill="#e8ff9a"/><path d="m28.68 47.85a1 1 0 0 1 -.7-.3 6.61 6.61 0 0 1 0-9.35 1 1 0 1 1 1.41 1.41 4.62 4.62 0 0 0 0 6.53 1 1 0 0 1 -.71 1.71z" fill="#302d3d"/><path d="m32.66 54.91a12 12 0 1 1 8.5-20.54 12 12 0 0 1 -8.5 20.54zm-10-12a10 10 0 1 0 17.12-7.09 10 10 0 0 0 -17.15 7.06z" fill="#302d3d"/><path d="m54 38.23a9.56 9.56 0 1 1 -15.1-10.33 9.56 9.56 0 0 1 15.1 10.33z" fill="#b6dc9a"/><path d="m51.78 28.63c4.95 5.06-.62 13.65-7.23 11.1a9.57 9.57 0 0 1 -5.65-11.83 9.56 9.56 0 0 1 12.88.73z" fill="#e8ff9a"/><path d="m44.94 45.86a10.56 10.56 0 1 1 7.47-18 10.57 10.57 0 0 1 -7.47 18zm-8.56-10.55a8.56 8.56 0 1 0 14.62-6.05 8.56 8.56 0 0 0 -14.62 6.05z" fill="#302d3d"/><path d="m64.35 34.1a9.56 9.56 0 1 1 -.35-13.1 9.54 9.54 0 0 1 .35 13.1z" fill="#b6dc9a"/><path d="m64.35 34.1a9.55 9.55 0 0 1 -11.15-6.93c-1.63-6.17 6.19-10.8 10.8-6.17a9.53 9.53 0 0 1 .35 13.1z" fill="#e8ff9a"/><path d="m58.25 26.46h1.87a1.52 1.52 0 0 0 1.14-2.54c0-.06-.06-.06-.16-.16a2.47 2.47 0 0 0 -4 1.31 1.19 1.19 0 0 0 1.15 1.39z" fill="#fff"/><path d="m57.22 38.29a10.56 10.56 0 1 1 7.47-18 10.57 10.57 0 0 1 -7.47 18zm-8.55-10.55a8.56 8.56 0 1 0 14.61-6.06 8.57 8.57 0 0 0 -14.61 6.06z" fill="#302d3d"/><path d="m73.82 27c-1.71 8.85-6.46 25.72-18.94 38.2-12.77 12.77-30.15 17.44-38.82 19a2.49 2.49 0 0 1 -2.56-3.79 188.16 188.16 0 0 1 56.11-56.3 2.76 2.76 0 0 1 4.21 2.89z" fill="#53c08c"/><path d="m51.3 62.73c-8.86 8.87-19.94 13.83-28.79 16.58a3.87 3.87 0 0 1 -4.26-6 188.66 188.66 0 0 1 45-44.88 3.4 3.4 0 0 1 5.24 3.73c-2.49 8.25-7.49 20.91-17.19 30.57z" fill="#99d98c"/><path d="m25.87 63.41a2 2 0 0 0 3.13 2.52 172 172 0 0 1 25.53-25.76 2 2 0 0 0 -2.53-3.07 175.26 175.26 0 0 0 -26.13 26.31z" fill="#dafca0"/><path d="m44.28 43.77a157.74 157.74 0 0 0 -12.87 13.11 2 2 0 0 0 3 2.64 158.87 158.87 0 0 1 12.59-12.81 2 2 0 0 0 -1.36-3.46 2 2 0 0 0 -1.36.52z" fill="#ffa"/><g fill="#302d3d"><path d="m12.66 79.87a188.93 188.93 0 0 1 56.4-56.59 3.76 3.76 0 0 1 5.74 3.86c-1.75 9-6.57 26.07-19.21 38.71-12.85 12.85-30.17 17.63-39.35 19.34a3.49 3.49 0 0 1 -3.58-5.32zm1.68 1.13a1.49 1.49 0 0 0 1.54 2.26c8.95-1.66 25.83-6.31 38.3-18.78 12.26-12.3 16.95-28.91 18.66-37.72a1.76 1.76 0 0 0 -2.69-1.76c1.54 0-29.84 15.64-55.81 56z"/><path d="m39.35 73.11a1 1 0 0 1 -.49-1.87c10.32-5.79 17.94-13.77 23.49-25.87a1 1 0 0 1 1.32-.49 1 1 0 0 1 .49 1.33c-5.78 12.59-13.75 20.85-24.32 26.79a1 1 0 0 1 -.49.11z"/></g></g></svg>