<svg height="512" viewBox="0 0 96 96" width="512" xmlns="http://www.w3.org/2000/svg"><g id="Potato"><path d="m55.24 54.25c-6.5 10-19.82 12.88-30.28 7.17-24.85-13.56-31.3-47.84-14.74-57.92a17.44 17.44 0 0 1 24.6 7.16 14.8 14.8 0 0 0 8.28 7.4 24.35 24.35 0 0 1 12.14 36.19z" fill="#f0824b"/><path d="m33.36 15.8a5 5 0 0 1 -1.27 7.31l-13.09 8.36a2.73 2.73 0 0 1 -3.39-1.47c-2.93-6.81-3.87-13.82-2.8-19.53a6.63 6.63 0 0 1 6.43-5.47 13.44 13.44 0 0 1 12 7.43 19.36 19.36 0 0 0 2.12 3.37z" fill="#f0b46e"/><path d="m45.7 19.16-22.42 14.33c-.44.29-.88.59-1.3.89a6.74 6.74 0 0 1 -10.06-2.81c-4.39-10.25-4.81-21.17-.63-28.66-17.84 8.92-11.74 44.64 13.71 58.51 10.46 5.71 23.78 2.81 30.28-7.17a24.38 24.38 0 0 0 -9.58-35.09z" fill="#dc554b"/><path d="m29.38 24.31a1 1 0 0 1 -.59-1.82 35.1 35.1 0 0 1 12.54-5.61 1 1 0 0 1 .45 1.95 33 33 0 0 0 -11.78 5.29.93.93 0 0 1 -.62.19z" fill="#302d3d"/><path d="m16.59 44.34a1 1 0 0 1 -1-1.17 31.54 31.54 0 0 1 6.35-14.17 1 1 0 1 1 1.57 1.23 29.33 29.33 0 0 0 -5.93 13.28 1 1 0 0 1 -.99.83z" fill="#302d3d"/><path d="m24.17 10.67a1 1 0 0 1 .83-1.15 36.59 36.59 0 0 1 8.5-.44 1 1 0 0 1 -.13 2 34.84 34.84 0 0 0 -8 .42 1 1 0 0 1 -1.2-.83z" fill="#302d3d"/><path d="m14 15.46a1 1 0 0 1 -.49-1.87 35.27 35.27 0 0 1 4.82-2.26 1 1 0 0 1 .67 1.87 33.68 33.68 0 0 0 -4.55 2.13 1 1 0 0 1 -.45.13z" fill="#302d3d"/><path d="m1.35 28.18a1 1 0 0 1 -.88-1.47 31.81 31.81 0 0 1 4-5.77 1 1 0 0 1 1.53 1.31c-3.86 4.42-3.4 5.93-4.65 5.93z" fill="#302d3d"/><path d="m3.19 35.92a1 1 0 0 1 -.9-1.42 36.62 36.62 0 0 1 9.71-12.58 1 1 0 1 1 1.27 1.54 34.62 34.62 0 0 0 -9.17 11.89 1 1 0 0 1 -.91.57z" fill="#302d3d"/><path d="m36.26 65.31a24.52 24.52 0 0 1 -11.78-3c-22-12-29.69-39.89-20.8-53.79a18.47 18.47 0 0 1 32 1.7 13.7 13.7 0 0 0 7.72 6.9 25.58 25.58 0 0 1 15.48 15.82c5.2 15.41-5.35 32.37-22.62 32.37zm-30.9-55.72c-8.12 12.7-1.18 39.36 20.08 51 10.14 5.53 22.86 2.52 29-6.85a23.38 23.38 0 0 0 -11.67-34.74 15.78 15.78 0 0 1 -8.84-7.9 16.46 16.46 0 0 0 -28.57-1.51z" fill="#302d3d"/><path d="m42.06 84.94c-26.36-4.07-34.73-32.31-9.7-48.94l28.81-18.44c8.91-4.56 20.39-2.56 25.63 5.68 14.3 22.67-11.6 66.83-44.74 61.7z" fill="#f0644b"/><path d="m87.62 24.64c-.13 26-27.32 55.69-56.22 44.55a16.89 16.89 0 0 1 -5.92-27.54c4.26-4.39 5.58-4.88 35.69-24.09 9.02-4.56 21.11-2.77 26.45 7.08z" fill="#ffa64d"/><path d="m32.35 36a38.15 38.15 0 0 0 -7.89 6.88 2 2 0 0 0 1.54 3.2 1.94 1.94 0 0 0 1.52-.71 33.34 33.34 0 0 1 7-6c1.26-.83 20.57-13.17 21.71-13.9a2 2 0 0 0 -1.07-3.67c-.82-.05 1.01-1.04-22.81 14.2z" fill="#ffdd84"/><g fill="#302d3d"><path d="m45.48 67.32a1 1 0 0 1 -.72-.31 37.28 37.28 0 0 0 -5.82-4.9 1 1 0 0 1 -.26-1.39 1 1 0 0 1 1.39-.26 38.68 38.68 0 0 1 6.13 5.16 1 1 0 0 1 -.72 1.7z"/><path d="m23.86 55.81a51.51 51.51 0 0 0 -5.92-.73 1 1 0 0 1 -.94-1.08 1 1 0 0 1 1.06-.94 45.18 45.18 0 0 1 6 .75 1 1 0 0 1 .78 1.19 1 1 0 0 1 -.98.81z"/><path d="m46.91 41.88c-.73 0-1.56-1.08-6.21-2.89a1 1 0 1 1 .73-1.86 42.92 42.92 0 0 1 6 2.89 1 1 0 0 1 -.52 1.86z"/><path d="m72.19 41.4a1 1 0 0 1 -.68-.27 38.13 38.13 0 0 0 -7.84-5.59 1 1 0 0 1 1-1.76 39.82 39.82 0 0 1 8.25 5.89 1 1 0 0 1 -.73 1.73z"/><path d="m55.74 32.24a45.33 45.33 0 0 0 -13.34-1.67 1 1 0 0 1 -1-1 1 1 0 0 1 1-1 44.88 44.88 0 0 1 13.6 1.71 1 1 0 0 1 -.26 1.96z"/><path d="m90.68 36a1 1 0 0 1 -.74-.33 37.54 37.54 0 0 0 -8.7-7 1 1 0 1 1 1-1.72 39.45 39.45 0 0 1 9.17 7.4 1 1 0 0 1 -.73 1.65z"/><path d="m53.42 23.51a1 1 0 0 1 -.15-2 43.62 43.62 0 0 1 12.35-.18 1 1 0 0 1 .87 1.12 1 1 0 0 1 -1.12.86 41 41 0 0 0 -11.95.2z"/><path d="m34 51.18a58.29 58.29 0 0 0 -13.33-2.36 1 1 0 0 1 -.94-1 1 1 0 0 1 1-.94 54.5 54.5 0 0 1 13.53 2.39 1 1 0 0 1 -.26 1.91z"/><path d="m47.38 86.36c-13.72 0-27.5-7.71-30.49-21.33-2.39-10.86 3.11-21.97 14.76-29.77.1-.1 29-18.59 29.24-18.66 9.75-4.9 21.47-2.24 26.75 6.1 14.19 22.41-9.38 63.65-40.26 63.66zm-14.38-49.64c-.13.13-17.95 10.83-14.2 27.88 2.25 10.05 11.2 17.47 23.41 19.4 17.46 2.7 31.8-8.74 39.41-20.36 9-13.71 10.73-29.71 4.33-39.82-4.76-7.52-15.44-9.85-24.32-5.31-.16.04 1.37-.96-28.63 18.21z"/></g><path d="m93.88 80.58c-6.72 15-33.54 19.33-49.14 8.06 5.76 3.91 15.89.1 23-8.78 7.38-9.18 8.77-20.3 3.12-24.85l-.15-.11c5.65 2.5 12.08 5.36 16 7.07 6.62 3.74 10.21 11.82 7.17 18.61z" fill="#ffa64d"/><path d="m86.75 66.87a5.93 5.93 0 0 1 .34 8.75c-3.3 3.35-8.3 5.8-14.1 6.9a1 1 0 0 1 -.99-1.52 32.88 32.88 0 0 0 6.12-14.48 2.85 2.85 0 0 1 4-2.17c2.41 1.03 3.09 1.2 4.63 2.52z" fill="#ffdd84"/><path d="m93.88 80.58c-6.72 15-33.54 19.33-49.14 8.06 3.9 2.65 9.82 1.75 15.44-1.87 13.61 1.91 30-3.23 34.2-15.3a13 13 0 0 1 -.5 9.11z" fill="#f0644b"/><path d="m67.77 79.86c-7.14 8.88-17.27 12.69-23 8.78a3.8 3.8 0 0 1 -.61-.44c-5.62-4.57-4.16-15.66 3.14-24.81 5.94-7.39 14-11.26 19.79-10.11a8.63 8.63 0 0 1 3.8 1.72c5.65 4.56 4.26 15.68-3.12 24.86z" fill="#ffb57a"/><path d="m50.1 86.17a5.46 5.46 0 0 1 -3.33-1 1.06 1.06 0 0 0 -.19-.16c-3.24-2.79-2.47-11.28 3.84-19.13 4.3-5.36 10-8.82 14.54-8.82a5.22 5.22 0 0 1 3.48 1.1c3.29 2.89 2.56 11.34-3.78 19.19-4.31 5.36-10.03 8.82-14.56 8.82z" fill="#ffdd7a"/><path d="m44.15 89.45a1 1 0 0 1 -.23-1.38 1 1 0 0 1 1.38-.26c5.36 3.64 14.89-.13 21.69-8.58 7.01-8.73 8.49-19.23 3.27-23.44a1 1 0 0 1 -.39-1.33 1 1 0 0 1 1.28-.46c17.08 7.57 16 7.06 16.18 7.19 7.3 4.18 10.58 12.81 7.46 19.81-6.92 15.45-34.34 20.22-50.64 8.45zm7.06 1.66a39.62 39.62 0 0 0 25 1.55c13.84-3.66 16.61-12.49 16.79-12.49 2.71-6-.25-13.66-6.75-17.32-.39-.21 2 .91-12.14-5.37 2.83 5.79.8 15.13-5.53 23-5.11 6.32-11.71 10.16-17.37 10.63z" fill="#302d3d"/><path d="m50.07 91.16c-12.13 0-13.83-15.59-3.55-28.4 6.04-7.52 14.38-11.76 20.77-10.46a9.57 9.57 0 0 1 4.25 2c6 4.87 4.72 16.65-3 26.24-5.42 6.69-12.54 10.62-18.47 10.62zm14.93-37.08c-5.34 0-12 3.85-16.89 9.94-7 8.69-8.47 19.19-3.31 23.4a4.16 4.16 0 0 0 .51.38c5.38 3.65 14.91-.12 21.71-8.57 6.98-8.73 8.46-19.23 3.24-23.44l-.13-.1a8.29 8.29 0 0 0 -5.13-1.61z" fill="#302d3d"/><path d="m60.43 93.75a27.22 27.22 0 0 0 7.2-3.82 1 1 0 0 1 1.39.2 1 1 0 0 1 -.2 1.4 29.16 29.16 0 0 1 -7.73 4.11 1 1 0 0 1 -.66-1.89z" fill="#302d3d"/><path d="m76.78 81.43a1 1 0 0 1 -.9-1.44 27.28 27.28 0 0 0 1-21.62 1 1 0 0 1 1.86-.72 29.21 29.21 0 0 1 -1 23.21 1 1 0 0 1 -.96.57z" fill="#302d3d"/><path d="m76.28 94.69a1 1 0 0 1 -.53-1.85 27.17 27.17 0 0 0 11.68-14.84 1 1 0 0 1 1.26-.64 1 1 0 0 1 .65 1.26 29.23 29.23 0 0 1 -12.54 15.93 1 1 0 0 1 -.52.14z" fill="#302d3d"/><path d="m89.72 69.5a1 1 0 0 1 -1-1 26.87 26.87 0 0 0 -.61-4.72 1 1 0 0 1 2-.43 29.81 29.81 0 0 1 .65 5.07 1 1 0 0 1 -1.04 1.08z" fill="#302d3d"/></g></svg>