<svg height="512" viewBox="0 0 96 96" width="512" xmlns="http://www.w3.org/2000/svg"><g id="Red_Radish" data-name="Red Radish"><path d="m21 21c-8.07-2.84-11-13.3-5.35-19.72 8.13 2.89 10.92 13.38 5.35 19.72z" fill="#3ab67d"/><path d="m21 22a1 1 0 0 1 -1-.74l-3.59-13.18a1 1 0 0 1 .7-1.22 1 1 0 0 1 1.23.7l3.57 13.19a1 1 0 0 1 -.91 1.25z" fill="#302d3d"/><path d="m20.62 22c-8.75-3.12-11.9-14.43-5.77-21.37a1 1 0 0 1 1.09-.28c8.82 3.11 11.86 14.43 5.76 21.33a1 1 0 0 1 -1.08.32zm-4.71-19.51c-4.45 5.76-2 14.47 4.73 17.33 4.45-5.75 2.02-14.46-4.73-17.33z" fill="#302d3d"/><path d="m32.12 4.32a37 37 0 0 0 -8.35 22.77 13.09 13.09 0 0 1 8.35-22.77z" fill="#99d98c"/><path d="m23.1 27.83a14.1 14.1 0 0 1 9-24.51 1 1 0 0 1 .77 1.68 36.15 36.15 0 0 0 -8.1 22.11 1 1 0 0 1 -1.67.72zm6.71-22.2a12.09 12.09 0 0 0 -6.95 19 39.17 39.17 0 0 1 6.95-19z" fill="#302d3d"/><path d="m23.77 27.09c-11 5.26-16.66 17.33-12.91 27.47 3.33 9 12.7 13.85 22.53 12.85a11.55 11.55 0 0 1 6 1c2.63 1.2 7.39 7.46 7.39 7.46s-1.7-7.67-.92-10.46a11.7 11.7 0 0 1 3.14-5.27c6.69-6.49 9.14-16 5.4-24.08-4.91-10.63-18.69-14.69-30.63-8.97z" fill="#d51d70"/><path d="m44.71 44.51a23 23 0 0 0 -16.19 10.93 4.24 4.24 0 0 1 -4.89 1.88 13.86 13.86 0 0 1 -9-8.25c-2.68-7.25 1.66-16 9.88-20 11.39-5.45 23.36.67 23.8 11a4.27 4.27 0 0 1 -3.6 4.44z" fill="#f84070"/><path d="m24.37 45a3.65 3.65 0 0 1 -6.17-1.1c-2.48-6.57 5.8-15.25 14.89-13.74a4 4 0 0 1 .91 7.63 29.19 29.19 0 0 0 -9.63 7.21z" fill="#f8a0b2"/><path d="m1 18.75a37.05 37.05 0 0 1 22.77 8.34 13.09 13.09 0 0 0 -22.77-8.34z" fill="#99d98c"/><path d="m43.88 40.83a1 1 0 0 1 -.43-1.91l10.12-4.69a1 1 0 1 1 .84 1.82c-11.05 5.12-10.22 4.78-10.53 4.78z" fill="#302d3d"/><path d="m34.17 45.33a1 1 0 0 1 -.42-1.91l1.72-.8a1 1 0 1 1 .84 1.82c-1.86.86-1.85.89-2.14.89z" fill="#302d3d"/><path d="m18.52 52.59a1 1 0 0 1 -.42-1.91l5.68-2.68a1 1 0 0 1 .85 1.82c-6.11 2.87-5.79 2.77-6.11 2.77z" fill="#302d3d"/><path d="m21.71 42.81a1 1 0 0 1 -.42-1.91l9.29-4.31a1 1 0 0 1 .84 1.82c-10.17 4.71-9.42 4.4-9.71 4.4z" fill="#302d3d"/><path d="m38.92 34.83a1 1 0 0 1 -.42-1.91l3-1.39a1 1 0 1 1 .84 1.81c-3.23 1.5-3.12 1.49-3.42 1.49z" fill="#302d3d"/><path d="m9.72 48.36a1 1 0 0 1 -.42-1.9l5.63-2.61a1 1 0 1 1 .84 1.81c-5.94 2.76-5.77 2.7-6.05 2.7z" fill="#302d3d"/><path d="m16.67 63.69a1 1 0 0 1 -.42-1.91l3.87-1.78a1 1 0 1 1 .88 1.8c-4.2 1.93-4 1.89-4.33 1.89z" fill="#302d3d"/><path d="m26.74 32.33a1 1 0 0 1 -.42-1.91l2-.93a1 1 0 0 1 1.33.48 1 1 0 0 1 -.49 1.33c-2.16 1.02-2.16 1.03-2.42 1.03z" fill="#302d3d"/><path d="m46 76.42c-1.29-1.68-5.05-6.25-7-7.15a10.45 10.45 0 0 0 -5.45-.86c-10.7 1.09-20.18-4.34-23.57-13.5-3.98-10.62 1.91-23.23 13.36-28.72 12.32-5.9 26.77-1.79 32 9.45 3.85 8.29 1.65 18.19-5.61 25.22a10.8 10.8 0 0 0 -2.92 4.77c-.58 2.08.48 7.91.94 10a1 1 0 0 1 -1.75.79zm-6.18-9c1.55.71 3.65 2.86 5.28 4.73-.37-2.45-.65-5.44-.19-7.09a12.73 12.73 0 0 1 3.45-5.67c11.34-11 8-27.69-5.66-32.62a24.16 24.16 0 0 0 -18.49 1.23c-10.53 5-15.99 16.56-12.42 26.21 3.07 8.3 11.7 13.2 21.5 12.21a12.39 12.39 0 0 1 6.49 1.03z" fill="#302d3d"/><path d="m23.12 27.85a36 36 0 0 0 -22.12-8.1 1 1 0 0 1 -.75-1.67 14.09 14.09 0 0 1 24.51 9 1 1 0 0 1 -1.64.77zm-19.63-10a39.31 39.31 0 0 1 19 7 12.11 12.11 0 0 0 -19-7.02z" fill="#302d3d"/><path d="m75.28 59.48c2.84-8.07 13.31-11 19.72-5.34-2.88 8.17-13.37 10.96-19.72 5.34z" fill="#3ab67d"/><path d="m75.28 60.48a1 1 0 0 1 -.26-2l13.19-3.58a1 1 0 0 1 1.23.71 1 1 0 0 1 -.7 1.22c-14.12 3.87-13.26 3.65-13.46 3.65z" fill="#302d3d"/><path d="m74.62 60.23a1 1 0 0 1 -.28-1.08c3.07-8.72 14.37-11.91 21.32-5.76a1 1 0 0 1 .28 1.08c-3.1 8.82-14.42 11.88-21.32 5.76zm1.85-1.06a11.2 11.2 0 0 0 11.59 1.17 11.54 11.54 0 0 0 5.75-5.89c-5.76-4.45-14.48-1.98-17.34 4.72z" fill="#302d3d"/><path d="m92 70.65a37.06 37.06 0 0 0 -22.8-8.34 13.1 13.1 0 0 1 22.8 8.34z" fill="#99d98c"/><path d="m91.32 71.41a36 36 0 0 0 -22.11-8.1 1 1 0 0 1 -.75-1.67c8.54-9.35 24.08-3.64 24.54 8.98a1 1 0 0 1 -1.68.79zm-19.63-10a39.4 39.4 0 0 1 19 7 12.11 12.11 0 0 0 -19-7.02z" fill="#302d3d"/><path d="m60.24 93c-8.08 3.75-17.6 1.29-24.08-5.4a11.77 11.77 0 0 0 -5.23-3.18c-2.78-.78-10.45.92-10.45.92 1.91-1.45 6.76-5.43 7.59-7.72a11.38 11.38 0 0 0 .81-5.64c-1-9.83 3.84-19.2 12.86-22.54 8.62-3.19 18.64.46 24.68 8.37 9.15 11.94 6.3 29.35-6.18 35.19z" fill="#f84070"/><path d="m56.38 85.81c-8.08 3.75-17.6 1.29-24.08-5.4l-.18-.18a10.94 10.94 0 0 1 -3.18-7.46q0-.42-.06-.84c-1-9.83 3.84-19.2 12.86-22.54 8.62-3.19 18.64.46 24.68 8.37 4.03 11.24-.18 23.47-10.04 28.05z" fill="#f87c9d"/><path d="m30.39 68.38a1.48 1.48 0 0 0 1.47-1.31c1.35-12.64 13.52-19.81 25.14-13.52a1.49 1.49 0 0 0 1.4-2.64c-13.5-7.27-27.89 1-29.52 15.8a1.5 1.5 0 0 0 1.49 1.67z" fill="#ffd6e3"/><path d="m39.33 61.43a2.24 2.24 0 0 0 -3.93.25c-2.27 4.83-1.53 9-1.46 10.92a6 6 0 0 0 1.72 4.1 18.58 18.58 0 0 0 9.58 5.53 3 3 0 0 0 3.36-4c-3.76-9.96-6.09-11.79-9.27-16.8z" fill="#f8a9c0"/><path d="m49.21 53.27a14.09 14.09 0 0 0 -4.72.48 3 3 0 0 0 -1.75 4.25c4.43 8.29 5.13 5.33 10.48 19.28a3.11 3.11 0 0 0 5.06 1.16c9.02-8.94 3.18-24.37-9.07-25.17z" fill="#f8a9c0"/><path d="m77.55 39.54a37 37 0 0 1 -8.35 22.77 13.09 13.09 0 0 0 8.35-22.77z" fill="#99d98c"/><g fill="#302d3d"><path d="m52.17 95.73a23.47 23.47 0 0 1 -16.73-7.48 10.71 10.71 0 0 0 -4.77-2.92c-2.1-.58-7.91.47-10 .93a1 1 0 0 1 -.82-1.77c1.68-1.28 6.25-5 7.16-7a10.56 10.56 0 0 0 .88-5.49c-1.09-10.71 4.33-20.19 13.5-23.57 10.61-3.93 23.23 2 28.71 13.42 7.68 16.05-1.81 33.88-17.93 33.88zm-20.97-12.33a12.71 12.71 0 0 1 5.67 3.45c11 11.32 27.69 8.08 32.62-5.65a24.14 24.14 0 0 0 -1.19-18.46c-5-10.53-16.56-16-26.22-12.41-8.29 3.07-13.2 11.67-12.2 21.49a12.61 12.61 0 0 1 -1 6.49c-.75 1.56-2.88 3.69-4.76 5.29 1.88-.29 5.26-.71 7.08-.2z"/><path d="m69.2 63.31a1 1 0 0 1 -.75-1.66 36.1 36.1 0 0 0 8.1-22.1 1 1 0 0 1 1.67-.76c9.64 8.77 3.03 24.52-9.02 24.52zm9.26-21.31a39.11 39.11 0 0 1 -6.95 19 12.09 12.09 0 0 0 6.95-19z"/><path d="m61.16 93.53a1 1 0 0 1 -.91-.58l-4.69-10.12a1 1 0 1 1 1.81-.83l4.69 10.1a1 1 0 0 1 -.9 1.43z"/><path d="m52.76 75.43a1 1 0 0 1 -.91-.58l-.8-1.73a1 1 0 0 1 1.82-.84l.8 1.73a1 1 0 0 1 -.91 1.42z"/><path d="m47.34 63.74a1 1 0 0 1 -.9-.58l-2.64-5.68a1 1 0 0 1 .49-1.33 1 1 0 0 1 1.32.49l2.64 5.68a1 1 0 0 1 -.91 1.42z"/><path d="m46.23 83.42a1 1 0 0 1 -.91-.58l-6.45-13.92a1 1 0 1 1 1.81-.84l6.45 13.92a1 1 0 0 1 -.9 1.42z"/><path d="m51.74 95.3a1 1 0 0 1 -.91-.58l-2.43-5.23a1 1 0 0 1 .49-1.33 1 1 0 0 1 1.32.48l2.43 5.24a1 1 0 0 1 -.9 1.42z"/><path d="m56.64 95.17a1 1 0 0 1 -.91-.58l-1.53-3.3a1 1 0 0 1 1.8-.84l1.53 3.3a1 1 0 0 1 -.89 1.42z"/><path d="m58.8 70.53a1 1 0 0 1 -.91-.57l-4.31-9.29a1 1 0 1 1 1.82-.84l4.3 9.28a1 1 0 0 1 -.9 1.42z"/><path d="m63.86 81.45a1 1 0 0 1 -.91-.57l-1.39-3a1 1 0 0 1 1.81-.88l1.4 3a1 1 0 0 1 -.91 1.45z"/><path d="m51.54 54.89a1 1 0 0 1 -.91-.58l-2.63-5.63a1 1 0 1 1 1.82-.84l2.61 5.63a1 1 0 0 1 -.89 1.42z"/><path d="m35.4 60.08a1 1 0 0 1 -.9-.58l-1.8-3.88a1 1 0 1 1 1.81-.84l1.8 3.88a1 1 0 0 1 -.91 1.42z"/><path d="m38.08 84.1a1 1 0 0 1 -.91-.58l-3.22-7a1 1 0 1 1 1.81-.85l3.23 7a1 1 0 0 1 -.91 1.43z"/><path d="m65.9 68.29a1 1 0 0 1 -.91-.58l-.93-2a1 1 0 0 1 1.82-.85l.93 2a1 1 0 0 1 -.91 1.43z"/></g></g></svg>