<svg height="512" viewBox="0 0 96 96" width="512" xmlns="http://www.w3.org/2000/svg"><g id="Spinach"><path d="m47 42.57a12.17 12.17 0 0 0 -.22 4.92 14.9 14.9 0 0 1 -1.78 9.56 5.31 5.31 0 0 0 -.57 3.52 7.69 7.69 0 0 1 -2.25 6.91 15.34 15.34 0 0 1 4.49 10.83v13.91a2.68 2.68 0 0 1 -5.36 0c0-12.39.09-12.49-.27-14.39a15.62 15.62 0 0 0 -4.33-8.2 7.67 7.67 0 0 1 -6.24-3.37 5.69 5.69 0 0 0 -2.92-2.36 14.88 14.88 0 0 1 -7.81-5.78 12.09 12.09 0 0 0 -3.52-3.46 20.52 20.52 0 0 1 -9.54-19.15 14.83 14.83 0 0 0 -1.52-8 17 17 0 1 1 31.54-12.35 13.65 13.65 0 0 0 4 6.6 20.5 20.5 0 0 1 6.3 20.81z" fill="#49b18c"/><path d="m36.79 65.63a3.68 3.68 0 0 1 -3-1.6 9.58 9.58 0 0 0 -5-3.94 10.9 10.9 0 0 1 -5.72-4.23 15.89 15.89 0 0 0 -4.7-4.59 16.44 16.44 0 0 1 -7.69-15.41 18.87 18.87 0 0 0 -1.95-10.12 13 13 0 1 1 24.13-9.48 17.59 17.59 0 0 0 5.23 8.52 16.6 16.6 0 0 1 5.08 16.75 16 16 0 0 0 -.32 6.54 10.89 10.89 0 0 1 -1.31 7 9.32 9.32 0 0 0 -1 6.19 3.71 3.71 0 0 1 -1.08 3.34l-1.1 1.06z" fill="#99cf91"/><path d="m47 42.57a12.17 12.17 0 0 0 -.22 4.92 14.9 14.9 0 0 1 -1.78 9.56 5.31 5.31 0 0 0 -.57 3.52 7.69 7.69 0 0 1 -2.25 6.91 15.34 15.34 0 0 1 4.49 10.83v13.91a2.68 2.68 0 0 1 -5.36 0c0-12.39.09-12.49-.27-14.39v-4.13a2.26 2.26 0 0 0 -.69-1.7 11.54 11.54 0 0 1 -3.77-6.28 2 2 0 0 0 -.47-1 19 19 0 0 1 -6.54-10.45 8.12 8.12 0 0 0 -1.32-3 24.41 24.41 0 0 1 -2.25-25.56 10.77 10.77 0 0 0 1.09-5.81 21 21 0 0 1 3.46-13.59 16.78 16.78 0 0 1 6.15 8.85 13.65 13.65 0 0 0 4 6.6 20.5 20.5 0 0 1 6.3 20.81z" fill="#308982"/><path d="m43.59 70h-2.49a1.13 1.13 0 0 0 -.77 2 2.29 2.29 0 0 1 .73 1.74v4.13a15.49 15.49 0 0 1 .27 2.9v11.45a2.68 2.68 0 0 0 2.67 2.67 2.59 2.59 0 0 0 2.69-2.58v-14a15.14 15.14 0 0 0 -2.13-7.77 1.13 1.13 0 0 0 -.97-.54z" fill="#0d6164"/><path d="m44 95.89a3.67 3.67 0 0 1 -3.68-3.67v-11.49a14.61 14.61 0 0 0 -4-10.12 8.68 8.68 0 0 1 -6.64-3.79 4.77 4.77 0 0 0 -2.39-2 16 16 0 0 1 -8.34-6.17 10.93 10.93 0 0 0 -3.22-3.18 21.44 21.44 0 0 1 -10-20.09 13.77 13.77 0 0 0 -1.46-7.38 18 18 0 1 1 33.4-13.11 12.71 12.71 0 0 0 3.7 6.11 21.63 21.63 0 0 1 6.63 21.83 11.06 11.06 0 0 0 -.2 4.51 15.92 15.92 0 0 1 -1.91 10.2 4.3 4.3 0 0 0 -.45 2.86 8.67 8.67 0 0 1 -1.87 7.08 16.19 16.19 0 0 1 4.12 10.83v13.91a3.67 3.67 0 0 1 -3.69 3.67zm-23.62-92a16 16 0 0 0 -14.33 23.2 15.85 15.85 0 0 1 1.63 8.5 19.43 19.43 0 0 0 9.09 18.22 12.81 12.81 0 0 1 3.81 3.75 14 14 0 0 0 7.29 5.44 6.7 6.7 0 0 1 3.45 2.75 6.68 6.68 0 0 0 5.43 2.93 1 1 0 0 1 .69.29 16.6 16.6 0 0 1 4.89 11.81v11.44a1.68 1.68 0 0 0 3.36 0v-13.91a14.23 14.23 0 0 0 -4.19-10.12 1 1 0 0 1 0-1.43 6.66 6.66 0 0 0 2-6 6.29 6.29 0 0 1 .68-4.19 13.9 13.9 0 0 0 1.67-8.92 12.93 12.93 0 0 1 .25-5.33 19.63 19.63 0 0 0 -6-19.8 14.66 14.66 0 0 1 -4.31-7.08 16.07 16.07 0 0 0 -15.4-11.53z" fill="#302d3d"/><path d="m10.5 12.46a1 1 0 0 1 -.76-1.65 14.06 14.06 0 0 1 17.17-3.27 1 1 0 0 1 -.91 1.77 12.07 12.07 0 0 0 -14.72 2.8 1 1 0 0 1 -.78.35z" fill="#302d3d"/><path d="m90.84 27.54a14.83 14.83 0 0 0 -1.52 8 20.52 20.52 0 0 1 -9.56 19.15 12.09 12.09 0 0 0 -3.52 3.46 14.88 14.88 0 0 1 -7.81 5.78 5.69 5.69 0 0 0 -2.92 2.36 7.67 7.67 0 0 1 -6.24 3.37 15.62 15.62 0 0 0 -4.33 8.2c-.36 1.88-.27 1.94-.27 14.39a2.68 2.68 0 0 1 -5.36 0v-13.94a15.31 15.31 0 0 1 4.49-10.83 7.69 7.69 0 0 1 -2.25-6.91 5.31 5.31 0 0 0 -.55-3.52 14.9 14.9 0 0 1 -1.79-9.56 12.17 12.17 0 0 0 -.21-4.92 20.5 20.5 0 0 1 6.32-20.81 13.65 13.65 0 0 0 4-6.6 17 17 0 1 1 31.52 12.38z" fill="#49b18c"/><path d="m56.57 64.6a3.68 3.68 0 0 1 -1.08-3.31 9.34 9.34 0 0 0 -1-6.21 10.91 10.91 0 0 1 -1.31-7 16 16 0 0 0 -.32-6.55 16.58 16.58 0 0 1 5.09-16.75 17.66 17.66 0 0 0 5.22-8.51 13 13 0 1 1 24.13 9.47 18.77 18.77 0 0 0 -1.93 10.12 16.47 16.47 0 0 1 -7.7 15.41 16 16 0 0 0 -4.7 4.59 10.84 10.84 0 0 1 -5.71 4.22 9.67 9.67 0 0 0 -5 3.94 3.67 3.67 0 0 1 -3 1.61h-1.53z" fill="#99cf91"/><path d="m79.35 24.65a2.66 2.66 0 0 0 4.35-.71 9 9 0 0 0 -4.44-12.24 4 4 0 0 0 -5.09 5.48 35 35 0 0 0 5.18 7.47z" fill="#daed91"/><path d="m67.75 51.2a8.14 8.14 0 0 0 -1.32 3 18.94 18.94 0 0 1 -6.54 10.46c-.75.64-.46 4-4.24 7.31a2.26 2.26 0 0 0 -.71 1.72v4.13c-.36 1.88-.27 1.94-.27 14.39a2.68 2.68 0 0 1 -5.36 0v-13.9a15.31 15.31 0 0 1 4.49-10.83 7.69 7.69 0 0 1 -2.25-6.91 5.31 5.31 0 0 0 -.55-3.52 14.9 14.9 0 0 1 -1.79-9.56 12.17 12.17 0 0 0 -.21-4.92 20.5 20.5 0 0 1 6.32-20.81 13.65 13.65 0 0 0 4-6.6 16.89 16.89 0 0 1 6.14-8.85 21 21 0 0 1 3.47 13.59 10.79 10.79 0 0 0 1.07 5.81 24.41 24.41 0 0 1 -2.25 25.49z" fill="#308982"/><path d="m52.41 70a1.13 1.13 0 0 0 -1 .54 15.21 15.21 0 0 0 -2.13 7.77v13.91a2.68 2.68 0 0 0 5.36 0c0-12.39-.09-12.49.27-14.39v-4.13a2.26 2.26 0 0 1 .74-1.7 1.13 1.13 0 0 0 -.77-2z" fill="#0d6164"/><path d="m52 95.89a3.66 3.66 0 0 1 -3.68-3.67v-13.91a16.21 16.21 0 0 1 4.12-10.83 8.67 8.67 0 0 1 -1.87-7.08 4.3 4.3 0 0 0 -.45-2.86 15.92 15.92 0 0 1 -1.91-10.2 11.06 11.06 0 0 0 -.2-4.51 21.65 21.65 0 0 1 6.62-21.83 12.63 12.63 0 0 0 3.7-6.12 18 18 0 1 1 33.4 13.12 13.77 13.77 0 0 0 -1.41 7.43 21.44 21.44 0 0 1 -10 20.09 10.93 10.93 0 0 0 -3.22 3.18 16 16 0 0 1 -8.34 6.17 4.77 4.77 0 0 0 -2.39 2 8.68 8.68 0 0 1 -6.64 3.79 14.61 14.61 0 0 0 -4 10.12v11.44a3.67 3.67 0 0 1 -3.73 3.67zm23.62-92a16.08 16.08 0 0 0 -15.36 11.54 14.66 14.66 0 0 1 -4.26 7.08 19.63 19.63 0 0 0 -6 19.8 12.93 12.93 0 0 1 .25 5.33 13.9 13.9 0 0 0 1.67 8.92 6.29 6.29 0 0 1 .68 4.19 6.66 6.66 0 0 0 2 6 1 1 0 0 1 0 1.43 14.23 14.23 0 0 0 -4.19 10.12v13.92a1.68 1.68 0 0 0 2.84 1.2 1.6 1.6 0 0 0 .52-1.2v-11.49a16.6 16.6 0 0 1 4.89-11.81 1 1 0 0 1 .69-.29 6.69 6.69 0 0 0 5.43-2.93 6.7 6.7 0 0 1 3.35-2.7 14 14 0 0 0 7.29-5.39 12.81 12.81 0 0 1 3.81-3.75 19.43 19.43 0 0 0 9.09-18.22 15.85 15.85 0 0 1 1.68-8.55 16 16 0 0 0 -14.39-23.18z" fill="#302d3d"/><path d="m61.62 32.13a1 1 0 0 1 2 .28c-1.07 7.48 5.79 11 11.24 5.64a1 1 0 1 1 1.4 1.43c-6.79 6.59-16 2.11-14.64-7.35z" fill="#302d3d"/><path d="m19.72 39.48a1 1 0 0 1 1.4-1.43c5.45 5.31 12.32 1.85 11.24-5.64a1 1 0 0 1 2-.28c1.33 9.39-7.84 13.97-14.64 7.35z" fill="#302d3d"/><path d="m59.47 60.47a1 1 0 0 1 -.92-1.39l16.86-39.8a1 1 0 1 1 1.84.78l-16.86 39.8a1 1 0 0 1 -.92.61z" fill="#302d3d"/><path d="m36.49 60.47a1 1 0 0 1 -.92-.61l-16.86-39.8a1 1 0 1 1 1.84-.78l16.86 39.8a1 1 0 0 1 -.92 1.39z" fill="#302d3d"/><path d="m66.92 59.14a10 10 0 0 0 5.2-3.84c3.63-5.31 6.38-4.53 9.65-9.38a1 1 0 0 1 1.66 1.08c-3.5 5.19-6.3 4.48-9.66 9.39a12 12 0 0 1 -6.24 4.61 1 1 0 0 1 -.61-1.86z" fill="#302d3d"/><path d="m66.44 27.49a14.84 14.84 0 0 1 -1.5-8 17 17 0 1 0 -33.88 0 14.84 14.84 0 0 1 -1.5 8 20.54 20.54 0 0 0 1.9 21.33 12.19 12.19 0 0 1 2 4.5 14.89 14.89 0 0 0 5.16 8.24 5.71 5.71 0 0 1 1.85 3.26 7.65 7.65 0 0 0 2.53 4.18 6.25 6.25 0 0 1 2.1 4.75v18.31a2.94 2.94 0 0 0 5.88 0v-18.36a6.25 6.25 0 0 1 2.02-4.7 7.65 7.65 0 0 0 2.48-4.13 5.67 5.67 0 0 1 1.86-3.26 15 15 0 0 0 5.16-8.24 11.94 11.94 0 0 1 2-4.5 20.52 20.52 0 0 0 1.94-21.38z" fill="#99d98c"/><path d="m48 63.18c-1.07-1.22-1.48-1.2-1.66-2a11.69 11.69 0 0 0 -3.94-6.62 9 9 0 0 1 -3.09-4.92 17.82 17.82 0 0 0 -3-6.73 14.43 14.43 0 0 1 -1.34-15.08 20.91 20.91 0 0 0 2.03-11.2 11 11 0 1 1 21.94 0 20.77 20.77 0 0 0 2.09 11.19 14.44 14.44 0 0 1 -1.34 15.09 17.82 17.82 0 0 0 -3 6.73 8.92 8.92 0 0 1 -3.09 4.92 11.69 11.69 0 0 0 -3.94 6.62c-.17.82-.59.82-1.66 2z" fill="#cbfcb4"/><path d="m37.58 12.16a11 11 0 0 1 20.84 0 2.49 2.49 0 0 0 2.38 1.68 2.54 2.54 0 0 0 2.2-3.74 17 17 0 0 0 -30.1 0 2.54 2.54 0 0 0 2.26 3.7 2.5 2.5 0 0 0 2.42-1.64z" fill="#ffffeb"/><path d="m61.29 40.24c-1.42 3.14-3.4 4.13-4.6 9.4a8.92 8.92 0 0 1 -3.09 4.92 11.69 11.69 0 0 0 -3.94 6.62c-.16.78-.61.8-1.66 2-1.08-1.23-1.47-1.18-1.66-2a11.69 11.69 0 0 0 -3.94-6.62 9 9 0 0 1 -3.09-4.92c-1.2-5.27-3.21-6.32-4.6-9.4a3.35 3.35 0 0 0 -3.07-1.91 3.4 3.4 0 0 0 -3.29 4.35c1.76 5.68 4 5.9 5.12 10.64a14.87 14.87 0 0 0 5.12 8.2 5.87 5.87 0 0 1 1.89 3.3 7.64 7.64 0 0 0 2.35 4 6.43 6.43 0 0 1 2.23 4.74v18.34a3 3 0 0 0 2.73 3.1 2.94 2.94 0 0 0 3.15-2.93v-18.36a6.23 6.23 0 0 1 2.06-4.71 7.59 7.59 0 0 0 2.51-4.15 5.67 5.67 0 0 1 1.86-3.26 15 15 0 0 0 5.16-8.24 11.94 11.94 0 0 1 2-4.5 20.45 20.45 0 0 0 3.11-6.14 3.4 3.4 0 0 0 -3.29-4.35 3.35 3.35 0 0 0 -3.06 1.88z" fill="#3ab67d"/><path d="m52.12 58a2 2 0 0 0 -1.87 1.25 13.12 13.12 0 0 0 -.59 1.93c-.16.78-.61.8-1.66 2-1.08-1.23-1.47-1.18-1.66-2a13.4 13.4 0 0 0 -.6-2 2 2 0 0 0 -1.84-1.18h-4.09a2 2 0 0 0 -1.28 3.48c2.69 2.21 1.16 4.53 4.3 7.35a6.43 6.43 0 0 1 2.23 4.74v18.33a3 3 0 0 0 2.73 3.1 2.94 2.94 0 0 0 3.15-2.93v-18.36a6.21 6.21 0 0 1 2.06-4.71 7.64 7.64 0 0 0 2.5-4.15 5.67 5.67 0 0 1 1.86-3.26 2 2 0 0 0 -1.26-3.59z" fill="#3a847d"/><path d="m48 96a4 4 0 0 1 -3.94-3.94v-18.36a5.24 5.24 0 0 0 -1.75-4 8.57 8.57 0 0 1 -2.8-4.7 4.88 4.88 0 0 0 -1.51-2.66 16 16 0 0 1 -5.51-8.79 11.1 11.1 0 0 0 -1.83-4.14 21.39 21.39 0 0 1 -2-22.36 13.8 13.8 0 0 0 1.39-7.43 18 18 0 1 1 35.88 0 13.75 13.75 0 0 0 1.4 7.38 21.41 21.41 0 0 1 -2 22.37 11.05 11.05 0 0 0 -1.83 4.13 16 16 0 0 1 -5.5 8.84 4.88 4.88 0 0 0 -1.51 2.66 8.57 8.57 0 0 1 -2.8 4.67 5.24 5.24 0 0 0 -1.75 4v18.39a4 4 0 0 1 -3.94 3.94zm0-94a16 16 0 0 0 -16 17.43 15.91 15.91 0 0 1 -1.59 8.51 19.39 19.39 0 0 0 1.81 20.28 13.09 13.09 0 0 1 2.17 4.88 14 14 0 0 0 4.81 7.68 6.75 6.75 0 0 1 2.21 3.83 6.59 6.59 0 0 0 2.15 3.58 7.22 7.22 0 0 1 2.45 5.51v18.36a1.94 1.94 0 0 0 3.88 0v-18.36a7.25 7.25 0 0 1 2.44-5.51 6.55 6.55 0 0 0 2.16-3.58 6.75 6.75 0 0 1 2.21-3.83 14 14 0 0 0 4.81-7.69 13.12 13.12 0 0 1 2.17-4.87 19.41 19.41 0 0 0 1.81-20.29 15.87 15.87 0 0 1 -1.49-8.5 16 16 0 0 0 -16-17.43z" fill="#302d3d"/><path d="m53.56 6.24a13.19 13.19 0 0 1 6.71 7.43" fill="#fff"/><path d="m60.27 14.67a1 1 0 0 1 -1-.66 12.09 12.09 0 0 0 -6.19-6.87 1 1 0 0 1 .92-1.81 14.16 14.16 0 0 1 7.22 8 1 1 0 0 1 -.95 1.34z" fill="#302d3d"/><rect fill="#f0c382" height="7.63" rx="1.38" width="17.31" x="39.39" y="80.16"/><rect fill="#f0824b" height="3.81" rx="1.38" width="17.31" x="39.39" y="83.97"/><g fill="#302d3d"><path d="m55.33 88.78h-14.56a2.37 2.37 0 0 1 -2.37-2.37v-4.88a2.37 2.37 0 0 1 2.37-2.37h14.56a2.38 2.38 0 0 1 2.38 2.37v4.88a2.38 2.38 0 0 1 -2.38 2.37zm-14.56-7.62a.37.37 0 0 0 -.37.37v4.88a.36.36 0 0 0 .37.37h14.56a.37.37 0 0 0 .38-.37v-4.88a.38.38 0 0 0 -.38-.37z"/><path d="m48.05 68.46a1 1 0 0 1 -1-1v-42a1 1 0 0 1 2 0v42a1 1 0 0 1 -1 1z"/><path d="m39.87 50.22a1 1 0 0 1 1.88-.66c2.51 7.13 10.19 7 12.58-.2a1 1 0 0 1 1.9.63c-2.99 9.06-13.23 9.15-16.36.23z"/><path d="m39.87 38.71a1 1 0 1 1 1.88-.66c2.51 7.13 10.2 7 12.58-.2a1 1 0 0 1 1.9.63c-2.99 9.06-13.23 9.15-16.36.23z"/><path d="m39.87 27.2a1 1 0 0 1 .61-1.28 1 1 0 0 1 1.27.62c2.51 7.13 10.2 7 12.58-.2a1 1 0 0 1 1.9.63c-2.99 9.03-13.23 9.15-16.36.23z"/><path d="m48 20.67a1 1 0 0 1 -1-1v-3.84a1 1 0 1 1 2 0v3.84a1 1 0 0 1 -1 1z"/><path d="m44.12 85h-4.72a1 1 0 0 1 0-2h4.72a1 1 0 1 1 0 2z"/></g></g></svg>