<svg height="512" viewBox="0 0 96 96" width="512" xmlns="http://www.w3.org/2000/svg"><g id="Squash"><path d="m33.21 15h-9.21l2-11.84a2.6 2.6 0 0 1 2.59-2.16 2.6 2.6 0 0 1 2.57 2.16z" fill="#ff834d"/><path d="m33.21 16h-9.21a1 1 0 0 1 -1-1.17l2-11.83a3.61 3.61 0 0 1 7.11 0l2 11.87a1 1 0 0 1 -.9 1.13zm-8-2h6.79l-1.82-10.67a1.61 1.61 0 0 0 -3.17 0z" fill="#302d3d"/><path d="m42.58 44.06v-18.06c0-7.84-6.14-14.58-14-14.72a14.24 14.24 0 0 0 -14.5 14.2v18.58a14.65 14.65 0 0 1 -3.93 9.77c-11.08 12.34-.58 30.25 18.18 30.25s29.24-17.92 18.17-30.25a14.69 14.69 0 0 1 -3.92-9.77z" fill="#e14761"/><path d="m28.33 81.08c-16 0-25.33-14.79-15.94-25.25a17.69 17.69 0 0 0 4.69-11.77v-18.58a11.26 11.26 0 0 1 11.46-11.25 11.55 11.55 0 0 1 11.04 11.77v18.06a17.69 17.69 0 0 0 4.69 11.77c9.48 10.56-.02 25.25-15.94 25.25z" fill="#ff6f52"/><path d="m36.28 44.06v-18.06c0-7.84-3.43-14.58-7.8-14.72s-8.1 6.29-8.1 14.25v18.53a22.08 22.08 0 0 1 -2.19 9.77c-6.26 12.5-.2 30.25 10.14 30.25s16.31-17.91 10.14-30.25a22.08 22.08 0 0 1 -2.19-9.77z" fill="#ffa64d"/><path d="m30.41 30.83a2.87 2.87 0 0 0 2.87-2.83v-2c0-6.95-3-11.66-5-11.72s-4.95 4.38-4.95 11.25v2.47a2.86 2.86 0 0 0 2.87 2.86z" fill="#ffd86b"/><path d="m28.33 76.08c-1.2 0-4.66-3.76-4.66-10.93a17.73 17.73 0 0 1 1.67-7.74 26.93 26.93 0 0 0 1.76-4.41 1.28 1.28 0 0 1 2.45 0 28.81 28.81 0 0 0 1.76 4.45 17.62 17.62 0 0 1 1.69 7.7c0 7.17-3.48 10.93-4.67 10.93z" fill="#ffd86b"/><g fill="#302d3d"><path d="m28.59 85.08a1 1 0 0 1 -1-1v-72.85a1 1 0 0 1 2 0v72.85a1 1 0 0 1 -1 1z"/><path d="m28.33 85.08c-19.63 0-30.57-19-18.92-31.92a13.72 13.72 0 0 0 3.67-9.1v-18.58a15.24 15.24 0 0 1 15.53-15.25 15.57 15.57 0 0 1 14.97 15.77v18.06a13.68 13.68 0 0 0 3.67 9.1c11.66 12.99.68 31.92-18.92 31.92zm0-72.85a13.24 13.24 0 0 0 -13.25 13.25v18.58a15.74 15.74 0 0 1 -4.18 10.44c-10.52 11.71-.41 28.58 17.43 28.58s27.93-16.88 17.43-28.58a15.69 15.69 0 0 1 -4.18-10.44v-18.06a13.55 13.55 0 0 0 -13.25-13.77z"/><path d="m28.33 85.08c-11.22 0-17.56-18.67-11-31.7a21.23 21.23 0 0 0 2.08-9.32v-18.58c0-5.51 1.72-10.59 4.48-13.27a6.41 6.41 0 0 1 4.65-2c4.92.16 8.77 7.07 8.77 15.72v18.13a21.23 21.23 0 0 0 2.08 9.32c6.61 13.23 0 31.7-11.06 31.7zm-3.08-71.43c-2.39 2.31-3.87 6.84-3.87 11.83v18.58a23.21 23.21 0 0 1 -2.3 10.22c-6 12-.21 28.8 9.25 28.8s15.14-17 9.24-28.8a23.24 23.24 0 0 1 -2.29-10.22v-18.06c0-7.31-3.13-13.6-6.84-13.72a4.39 4.39 0 0 0 -3.19 1.37z"/></g><path d="m72.55 26h-9.22l2-11.88a2.61 2.61 0 0 1 2.57-2.16 2.61 2.61 0 0 1 2.57 2.16z" fill="#ff834d"/><path d="m72.55 27h-9.22a1 1 0 0 1 -1-1.17l2-11.88a3.6 3.6 0 0 1 7.1 0l2.05 11.88a1 1 0 0 1 -.93 1.17zm-8-2h6.85l-1.88-10.75a1.6 1.6 0 0 0 -3.16 0z" fill="#302d3d"/><path d="m81.92 55v-18.13c0-7.84-6.14-14.58-14-14.72a14.26 14.26 0 0 0 -14.5 14.25v18.6a14.68 14.68 0 0 1 -3.92 9.76c-11.09 12.34-.58 30.24 18.17 30.24s29.25-17.92 18.18-30.25a14.64 14.64 0 0 1 -3.93-9.75z" fill="#ff974d"/><path d="m67.67 90.35c-14.58 0-23.16-13.09-14.67-22.49a19.41 19.41 0 0 0 5.07-12.86v-18.6a9.61 9.61 0 0 1 9.78-9.6 9.89 9.89 0 0 1 9.43 10.07v18.13a19.36 19.36 0 0 0 5.11 12.87c8.54 9.49-.28 22.48-14.72 22.48z" fill="#f8c277"/><path d="m82.39 67.86a19.36 19.36 0 0 1 -5.11-12.86v-6.34a4.33 4.33 0 0 0 -5.53-4.16l-7.37 2.11a8.7 8.7 0 0 0 -6.31 8.39 19.41 19.41 0 0 1 -5.07 12.86c-8.54 9.5.27 22.49 14.71 22.49s23.13-13.09 14.68-22.49z" fill="#f89f63"/><path d="m67.67 87.35c-11.8 0-19.27-9.94-12.48-17.49a22.35 22.35 0 0 0 5.88-14.86 5.74 5.74 0 0 1 4.14-5.49c8-2.29 7.48-2.16 7.74-2.16a1.33 1.33 0 0 1 1.33 1.33v6.32a22.35 22.35 0 0 0 5.88 14.88c6.68 7.42-.51 17.47-12.49 17.47z" fill="#f8814f"/><path d="m85.85 64.75a14.64 14.64 0 0 1 -3.93-9.75v-18.13c0-7.84-6.14-14.58-14-14.72a14.26 14.26 0 0 0 -14.5 14.25v18.6a14.68 14.68 0 0 1 -3.92 9.76c-11.1 12.34-.59 30.24 18.17 30.24s29.25-17.89 18.18-30.25zm-18.18 25.6c-14.67 0-23.14-13.13-14.67-22.49a19.41 19.41 0 0 0 5.07-12.86v-18.6a9.61 9.61 0 0 1 9.78-9.6 9.89 9.89 0 0 1 9.43 10.07v18.13a19.36 19.36 0 0 0 5.11 12.87c8.54 9.47-.26 22.48-14.72 22.48z" fill="#ff974d"/><path d="m55.74 41.92a2.33 2.33 0 0 0 2.33-2.33v-3.19a9.61 9.61 0 0 1 9.78-9.6 9.89 9.89 0 0 1 9.43 10.07v2.73a2.32 2.32 0 0 0 2.32 2.32 2.32 2.32 0 0 0 2.32-2.32v-2.73c0-7.84-6.14-14.58-14-14.72a14.26 14.26 0 0 0 -14.5 14.25v3.19a2.32 2.32 0 0 0 2.32 2.33z" fill="#ffd86b"/><path d="m84.2 81.77c-2.79 5-9.14 8.58-16.53 8.58s-13.74-3.53-16.52-8.58a2.33 2.33 0 0 0 -4.06 2.23c3.6 6.47 11.46 11 20.58 11s17-4.49 20.58-11a2.32 2.32 0 1 0 -4-2.27z" fill="#ff564d"/><circle cx="67.67" cy="74.33" fill="#ffa64d" r="10.33"/><path d="m67.67 96c-19.67 0-30.56-18.95-18.92-31.92a13.67 13.67 0 0 0 3.67-9.08v-18.6a15.24 15.24 0 0 1 15.58-15.25c8.25.15 15 7.21 15 15.72v18.13a13.72 13.72 0 0 0 3.67 9.09c11.58 12.98.61 31.91-19 31.91zm0-72.85a13.24 13.24 0 0 0 -13.25 13.25v18.6a15.68 15.68 0 0 1 -4.18 10.43c-10.53 11.72-.4 28.57 17.43 28.57s27.94-16.88 17.43-28.58a15.73 15.73 0 0 1 -4.18-10.42v-18.13a13.55 13.55 0 0 0 -13.25-13.72z" fill="#302d3d"/><path d="m67.67 91.35c-15.47 0-24.48-14.12-15.46-24.16a18.36 18.36 0 0 0 4.86-12.19v-18.6a10.6 10.6 0 0 1 10.79-10.6 10.9 10.9 0 0 1 10.42 11.07v18.13a18.35 18.35 0 0 0 4.85 12.21c9.04 10.04 0 24.14-15.46 24.14zm0-63.56a8.62 8.62 0 0 0 -8.59 8.61v18.6a20.34 20.34 0 0 1 -5.38 13.52c-7.9 8.8.3 20.83 14 20.83s21.86-12 14-20.83a20.33 20.33 0 0 1 -5.42-13.52v-18.13a8.89 8.89 0 0 0 -8.62-9.08z" fill="#302d3d"/><path d="m67.67 85.66a11.33 11.33 0 1 1 11.33-11.33 11.35 11.35 0 0 1 -11.33 11.33zm0-20.66a9.33 9.33 0 1 0 9.33 9.33 9.34 9.34 0 0 0 -9.33-9.33z" fill="#302d3d"/></g></svg>