<svg height="512" viewBox="0 0 96 96" width="512" xmlns="http://www.w3.org/2000/svg"><g id="Sweet_Potato" data-name="Sweet Potato"><path d="m72.94 15.7a9.92 9.92 0 0 0 -1.22 8c6.59 24.67-18.49 53.39-44.88 51.37a64.77 64.77 0 0 0 -16.34.63 7.9 7.9 0 0 1 -9.36-9.36 64.69 64.69 0 0 0 .63-16.34c-2-26.4 26.7-51.48 51.37-44.89a9.92 9.92 0 0 0 8-1.22c3.67-2.36 8.58-2.72 11.56.26 2.77 2.79 2.81 7.56.24 11.55z" fill="#954460"/><path d="m66.55 7a9.92 9.92 0 0 0 -1.22 8c6.67 24.68-18.51 53.34-44.88 51.34-2-.15-4.24-.19-6.47-.15a11.84 11.84 0 0 1 -11.98-11.64c0-1.4-.09-2.92-.22-4.56-2-26.4 26.7-51.48 51.37-44.89a10.09 10.09 0 0 0 8-1.25 12.37 12.37 0 0 1 1.94-1 2.83 2.83 0 0 1 3.46 4.15z" fill="#bd7b7e"/><path d="m23 55.43c-1.9 0-3.51-.33-9.15-.24a.83.83 0 0 1 -.82-.85c0-1.69-.12-3.43-.25-5.19-.62-8.08 3.14-17 10.06-23.95 7.14-7.15 18.1-12 27.5-9.47a6.23 6.23 0 0 1 4.66 5.6c.6 9.52-2.91 17.1-9.79 24-6.31 6.32-14.64 10.1-22.21 10.1z" fill="#e0999c"/><path d="m6.63 39.75c4.14-17.14 21-31.54 38.14-31.68a2 2 0 0 0 2-2 2 2 0 0 0 -2-2c-18.84.19-37.36 15.6-42 34.7a2 2 0 0 0 2 2.46 2 2 0 0 0 1.86-1.48z" fill="#efad9c"/><g fill="#302d3d"><path d="m9 55a1 1 0 0 1 -.71-.3l-7.29-7.25a1 1 0 0 1 1.4-1.45l7.27 7.3a1 1 0 0 1 -.67 1.7z"/><path d="m17.15 63.2c-.55 0-.6-.19-2.6-2.18a1 1 0 0 1 1.45-1.42l1.89 1.89a1 1 0 0 1 -.74 1.71z"/><path d="m30.08 76.13a1 1 0 0 1 -.71-.3l-8.06-8.06a1 1 0 0 1 1.41-1.41l8.07 8.06a1 1 0 0 1 -.71 1.71z"/><path d="m11 38.48a1 1 0 0 1 -.71-.29l-5.84-5.79a1 1 0 0 1 0-1.42 1 1 0 0 1 1.41 0l5.8 5.79a1 1 0 0 1 -.66 1.71z"/><path d="m45.13 72.66a1 1 0 0 1 -.71-.29l-20.53-20.54a1 1 0 1 1 1.41-1.41l20.54 20.58a1 1 0 0 1 -.71 1.66z"/><path d="m29.3 32.69a1 1 0 0 1 -.71-.3l-14.27-14.27a1 1 0 1 1 1.41-1.41l14.27 14.29a1 1 0 0 1 -.7 1.69z"/><path d="m39.92 43.31c-.55 0-.53-.12-3.09-2.68a1 1 0 1 1 1.41-1.41l2.39 2.39a1 1 0 0 1 -.71 1.7z"/><path d="m43.38 18.6a1 1 0 0 1 -.71-.29l-3.15-3.15a1 1 0 0 1 1.42-1.42l3.15 3.16a1 1 0 0 1 -.71 1.7z"/><path d="m61.46 36.68a1 1 0 0 1 -.71-.29l-9.84-9.84a1 1 0 1 1 1.42-1.41l9.84 9.86a1 1 0 0 1 -.71 1.68z"/><path d="m58.84 11.79a1 1 0 0 1 -.71-.29l-5.7-5.7a1 1 0 0 1 0-1.41 1 1 0 0 1 1.42 0l5.69 5.7a1 1 0 0 1 -.7 1.7z"/><path d="m71.72 24.68a1 1 0 0 1 -.7-.29l-6.59-6.59a1 1 0 0 1 0-1.41 1 1 0 0 1 1.42 0l6.58 6.61a1 1 0 0 1 -.71 1.68z"/><path d="m26.63 18.69a1 1 0 0 1 -.71-.29l-5.47-5.48a1 1 0 0 1 0-1.41 1 1 0 0 1 1.41 0l5.48 5.49a1 1 0 0 1 -.71 1.69z"/><path d="m72.66 34.38a1 1 0 0 1 -.7-.29l-6.37-6.37a1 1 0 0 1 1.41-1.41l6.37 6.36a1 1 0 0 1 -.71 1.71z"/><path d="m8.91 76.82a8.85 8.85 0 0 1 -8.75-10.67 63.18 63.18 0 0 0 .61-16.09c-.88-11.52 4.23-23.99 13.55-33.35 11-11 26.37-16 39.08-12.58a9 9 0 0 0 7.18-1.13c4.44-2.86 9.71-2.7 12.8.4s3.26 8.36.4 12.8a8.87 8.87 0 0 0 -1.09 7.18c3.4 12.71-1.54 28.05-12.58 39.08.1 0-14 15-33.34 13.55-11.47-.83-15.13.81-17.86.81zm-6.14-26.91a66.19 66.19 0 0 1 -.64 16.59 6.9 6.9 0 0 0 8.2 8.2 65.14 65.14 0 0 1 16.59-.64c10.94.83 22.82-4 31.78-13 10.54-10.51 15.3-25.06 12.06-37.12a11 11 0 0 1 1.34-8.79c2.35-3.64 2.29-7.87-.13-10.3s-6.66-2.48-10.3-.13a11 11 0 0 1 -8.79 1.34c-23.98-6.4-52.08 18.16-50.11 43.85z"/></g><path d="m94.16 76.87c-10 11.81-23.67 17.25-35.41 16.36a63.91 63.91 0 0 0 -16.35.63 7.91 7.91 0 0 1 -9.4-9.36 64 64 0 0 0 .62-16.34c-.86-11.72 4.58-25.41 16.38-35.42 5.58-3.18 18.4 2.85 29.84 14.29a76.88 76.88 0 0 1 7 8c6.76 8.97 9.77 17.55 7.32 21.84z" fill="#954460"/><path d="m87.49 65.36c-9.95 11.77-23.61 17.25-35.4 16.35-12.12-.93-15.78 1.05-18.73.74a65.62 65.62 0 0 0 .3-14.29c-1-13.4 6-26.67 16.37-35.42 5.58-3.18 18.4 2.85 29.84 14.29a76.88 76.88 0 0 1 7 8c1.67 4.33 1.96 7.97.62 10.33z" fill="#bd7b7e"/><path d="m79.87 47c-11.44-11.41-24.26-17.44-29.87-14.26-10.55 8.96-17.35 22.26-16.34 35.42.15 1.87.23 3.73.25 5.59h.83a2.7 2.7 0 0 0 2.69-2.75c-.09-13.18 4.9-24.89 16.34-34.57 5.24-3 16.87 2.15 27.75 12.27-.52-.54-1.09-1.11-1.65-1.7z" fill="#efad9c"/><path d="m92.8 78.41c-5.25 3.93-18.55-2.1-30.38-13.93s-17.86-25.13-13.93-30.38a4.83 4.83 0 0 1 1.51-1.36c5.58-3.18 18.4 2.85 29.84 14.29s17.5 24.26 14.32 29.84a4.94 4.94 0 0 1 -1.36 1.54z" fill="#e08088"/><path d="m61.48 40.18a1.49 1.49 0 0 0 -.57-2.18 18.45 18.45 0 0 0 -7.23-2.07c-.63 0-1.62.09-2 .6-.87 1.16-.5 4.41 1.59 8.9a2.1 2.1 0 0 0 3.43.53 58.6 58.6 0 0 0 4.78-5.78z" fill="#eabcb5"/><path d="m86.69 64.07a1.5 1.5 0 0 0 .23-1.81 71.4 71.4 0 0 0 -17.39-19 1.51 1.51 0 0 0 -2.15.35 80 80 0 0 1 -8 9.42 1.5 1.5 0 0 0 -.06 1.97 71.34 71.34 0 0 0 18.32 16.53 1.49 1.49 0 0 0 1.8-.21c2.45-2.32 4.84-4.83 7.25-7.25z" fill="#eabcb5"/><path d="m83.62 72.22a1.5 1.5 0 0 0 .56 2.48 14 14 0 0 0 4.43.91c.7 0 1.73-.1 2.07-.72.57-1 .42-3.17-.62-6.13a1.5 1.5 0 0 0 -2.48-.55c-1.32 1.34-2.58 2.69-3.96 4.01z" fill="#eabcb5"/><path d="m40.82 95a8.86 8.86 0 0 1 -8.76-10.67 62.71 62.71 0 0 0 .6-16.09c-.9-11.9 4.53-25.88 16.7-36.25l.17-.11c6.13-3.49 19.19 2.58 31.05 14.44s17.94 24.92 14.42 31.05l-.1.15c-10.32 12.16-24.31 17.61-36.23 16.7-11.07-.86-15.22.78-17.85.78zm9.78-61.43c-11.51 9.79-16.81 23.14-15.94 34.52a64.32 64.32 0 0 1 -.66 16.59 6.91 6.91 0 0 0 8.2 8.2 64.12 64.12 0 0 1 16.61-.65c11.39.87 24.74-4.45 34.5-15.93 2.87-5.23-3.31-17.74-14.14-28.57s-23.34-17.01-28.57-14.16z" fill="#302d3d"/><path d="m88.62 80.6c-6.84 0-17.28-5.78-26.91-15.41-12.3-12.31-18.33-25.93-14-31.69a5.85 5.85 0 0 1 1.85-1.63c6.12-3.49 19.18 2.59 31 14.45s17.96 24.92 14.44 31.05c-1 1.83-3.07 3.23-6.38 3.23zm-34.9-47.72a5.31 5.31 0 0 0 -4.43 1.81c-3.6 4.81 2.61 17.85 13.84 29.08s24.27 17.44 29.07 13.84a3.77 3.77 0 0 0 1.08-1.22c3-5.2-3.24-17.78-14.11-28.66-9.05-9.04-19.27-14.85-25.45-14.85z" fill="#302d3d"/><path d="m57.29 73.4a1 1 0 0 1 -.7-.28c-7.43-7.12-14.84-16.36-19.13-25.55a1 1 0 0 1 .48-1.33 1 1 0 0 1 1.33.48c4.22 9 11.52 18 18.71 25a1 1 0 0 1 -.69 1.68z" fill="#302d3d"/><path d="m79.75 89.54a.9.9 0 0 1 -.42-.1 67.94 67.94 0 0 1 -8.4-4.74 1 1 0 0 1 1.07-1.7 65.85 65.85 0 0 0 8.14 4.6 1 1 0 0 1 -.39 1.94z" fill="#302d3d"/><path d="m39.85 66.68a1 1 0 0 1 -.79-.38c-2-2.51-3.85-5.06-5.53-7.57a1 1 0 1 1 1.66-1.11c1.65 2.46 3.48 5 5.44 7.44a1 1 0 0 1 -.78 1.62z" fill="#302d3d"/><path d="m56.65 84.24a1 1 0 0 1 -.65-.24 136.79 136.79 0 0 1 -10.9-10.64 1 1 0 0 1 1.48-1.36 138.26 138.26 0 0 0 10.72 10.49 1 1 0 0 1 -.65 1.75z" fill="#302d3d"/><path d="m68.71 93.53a.94.94 0 0 1 -.55-.17c-1.51-1-3-2.08-4.55-3.21a1 1 0 1 1 1.19-1.6c1.49 1.1 3 2.16 4.47 3.15a1 1 0 0 1 -.56 1.83z" fill="#302d3d"/><path d="m43.18 84.72a1 1 0 0 1 -.7-.3c-3.28-3.28-6.43-6.69-9.34-10.13a1 1 0 1 1 1.52-1.29c2.88 3.4 6 6.77 9.23 10a1 1 0 0 1 -.71 1.72z" fill="#302d3d"/></g></svg>