<svg height="512" viewBox="0 0 96 96" width="512" xmlns="http://www.w3.org/2000/svg"><g id="Tomato"><path d="m32.72 18.17h-6.13l.76-8.64a2.32 2.32 0 0 1 4.62 0z" fill="#99d98c"/><path d="m32.72 19.17h-6.13a1 1 0 0 1 -1-1.09l.75-8.63a3.32 3.32 0 0 1 6.61 0l.75 8.63a1 1 0 0 1 -.98 1.09zm-5-2h3.95l-.67-7.55a1.32 1.32 0 0 0 -2.63 0z" fill="#302d3d"/><path d="m55.42 48.39c-9.86 19.88-41.64 19.86-51.53 0-9-18 3.9-36.7 21.3-31.5a15.43 15.43 0 0 0 8.93 0 18.48 18.48 0 0 1 13.72 1c10.08 5.01 13.47 18.67 7.58 30.5z" fill="#d52757"/><path d="m58.26 34.79c.83 19.17-25.92 29.92-38.95 12a6.71 6.71 0 1 0 -10 8.86c13.21 12.35 37.69 9.64 46.11-7.26a26.81 26.81 0 0 0 2.84-13.6z" fill="#a30e4d"/><g fill="#f84070"><path d="m56.67 27.64c8.57 21.36-19.06 38.13-35.15 21.71-7.25-7.35-9.66-19.28-5.33-28.35a7.6 7.6 0 0 1 8.94-4.13 15.47 15.47 0 0 0 9 0 18.06 18.06 0 0 1 22.54 10.77z"/><path d="m52.79 21.55a16 16 0 0 1 1.32 1.56 16.48 16.48 0 0 0 -1.32-1.56z"/><path d="m56.67 27.64c0 .09.07.18.1.27-.2-.53-.33-.78-.1-.27z"/><path d="m58.26 34.79a23.66 23.66 0 0 0 -1-5.56 20.84 20.84 0 0 1 1 5.56z"/></g><path d="m43.63 36.15a5.21 5.21 0 0 0 5.57-7.82 11.14 11.14 0 0 0 -4.49-4.19c-4-2-6.75-.87-10.49-.11a3.79 3.79 0 0 0 -1.7 6.64 28.6 28.6 0 0 0 11.11 5.48z" fill="#fff"/><path d="m3 48.84c-6.13-12.31-2.53-26.6 8-31.84a19.62 19.62 0 0 1 14.45-1.05 14.48 14.48 0 0 0 8.35 0 19.62 19.62 0 0 1 14.48 1.05c11.11 5.53 13.86 20.15 8 31.86-10.28 20.64-43.04 20.54-53.28-.02zm1.79-.9c9.51 19.11 40.2 19.16 49.73 0 5.31-10.66 3-24.12-7.13-29.17a17.36 17.36 0 0 0 -13-.92 16.56 16.56 0 0 1 -9.51 0c-16.69-5.02-28.58 13.05-20.09 30.09z" fill="#302d3d"/><path d="m6.33 33.7a1 1 0 0 1 -1-1.18c1.42-7.38 7-12.5 14.08-12.5a1 1 0 0 1 0 2c-5.65-.02-10.75 3.88-12.1 10.87a1 1 0 0 1 -.98.81z" fill="#302d3d"/><path d="m69.42 43.46h-6.13l.71-8.64a2.32 2.32 0 0 1 4.62 0z" fill="#99d98c"/><path d="m69.42 44.46h-6.13a1 1 0 0 1 -1-1.09l.76-8.63a3.32 3.32 0 0 1 6.61 0l.75 8.63a1 1 0 0 1 -.99 1.09zm-5-2h4l-.66-7.55a1.32 1.32 0 0 0 -2.63 0z" fill="#302d3d"/><path d="m84.18 83c-13.5 9.79-35.64 6.61-43.58-9.35-5.89-11.84-2.5-25.5 7.58-30.52a18.55 18.55 0 0 1 13.72-1 15.43 15.43 0 0 0 8.93 0 18.5 18.5 0 0 1 13.71 1c13.99 7 14.04 29.48-.36 39.87z" fill="#f84070"/><path d="m92.12 73.68a16.27 16.27 0 0 1 -16.73 8.83c-8.64-1.19-16.2-4.76-20.88-14.15a27.35 27.35 0 0 1 -2.85-10.44c-.51-8.22 6.09-15.41 14.34-15.07a14.34 14.34 0 0 0 4.85-.67 18.5 18.5 0 0 1 13.71 1c10.05 5 13.44 18.66 7.56 30.5z" fill="#f886a7"/><path d="m39.69 74.12c-6.12-12.3-2.52-26.59 8-31.85a19.6 19.6 0 0 1 14.44-1.05 14.51 14.51 0 0 0 8.36 0 19.62 19.62 0 0 1 14.51 1.05c10.56 5.26 14.16 19.55 8 31.85-10.26 20.64-43.06 20.58-53.31 0zm1.8-.89c9.51 19.11 40.19 19.16 49.73 0 5.64-11.32 2.44-24.4-7.13-29.17a17.36 17.36 0 0 0 -13-.92 16.56 16.56 0 0 1 -9.51 0c-16.69-5.02-28.58 13.05-20.09 30.09z" fill="#302d3d"/><path d="m61.66 58.68a.91.91 0 0 0 -1.21 1.21l.82 1.72a.91.91 0 0 1 -.51 1.25l-1.76.64a.9.9 0 0 0 0 1.7l1.8.64a.91.91 0 0 1 .51 1.25l-.82 1.73a.9.9 0 0 0 1.17 1.18.91.91 0 0 1 1.29.82v7.18a4.25 4.25 0 0 1 -5.7 4c-17.44-6.31-18.57-28.53-6.85-34.36a13.09 13.09 0 0 1 9.27-.87 4.24 4.24 0 0 1 3.33 4.14v7a.91.91 0 0 1 -1.34.77z" fill="#f82757"/><path d="m58.28 79.19c-18.42-6.68-15.28-33.14.72-29.49a1.22 1.22 0 0 1 1 1.21v4.9a3.92 3.92 0 0 0 -2.35 5 3.91 3.91 0 0 0 0 7.06 3.91 3.91 0 0 0 2.35 5v5.13a1.25 1.25 0 0 1 -1.72 1.19z" fill="#c10957"/><path d="m75.07 82.15a4.25 4.25 0 0 1 -5.66-4v-7.3a.87.87 0 0 1 1.25-.79.88.88 0 0 0 1.17-1.17l-.83-1.83a.88.88 0 0 1 .5-1.2l1.91-.69a.87.87 0 0 0 0-1.64l-1.91-.68a.88.88 0 0 1 -.5-1.2l.87-1.84a.87.87 0 0 0 -1.17-1.16.88.88 0 0 1 -1.25-.79v-6.86a4.24 4.24 0 0 1 3.27-4.13 13.43 13.43 0 0 1 9.62.8c11.94 5.92 10.36 28.41-7.27 34.48z" fill="#f82757"/><path d="m72.41 78.14v-5.25a3.87 3.87 0 0 0 2.25-5 3.88 3.88 0 0 0 0-7.07 3.88 3.88 0 0 0 -2.25-5v-4.82a1.24 1.24 0 0 1 1-1.21 10.36 10.36 0 0 1 7.6.57 11 11 0 0 1 5.58 7.46 18 18 0 0 1 -1.59 12.29 18.72 18.72 0 0 1 -10.86 9.2 1.25 1.25 0 0 1 -1.73-1.17z" fill="#c10957"/><path d="m56.91 83c-18.28-6.68-19.47-30-6.91-36.25a14.06 14.06 0 0 1 9.94-1 5.2 5.2 0 0 1 4.06 5.16v7a1.9 1.9 0 0 1 -2.49 1.81l.72 1.52a1.91 1.91 0 0 1 -1.09 2.61l-1.54.55 1.54.55a1.92 1.92 0 0 1 1.09 2.62l-.77 1.43a1.9 1.9 0 0 1 2.54 1.84v7.16a5.25 5.25 0 0 1 -7.09 5zm-.91-35.69c-10 0-15.79 12.15-10 23.69a20.62 20.62 0 0 0 11.59 10.07 3.25 3.25 0 0 0 4.41-3.07v-7a1.9 1.9 0 0 1 -2.4-2.59l.78-1.64-1.7-.6a1.9 1.9 0 0 1 0-3.59l1.7-.61-.78-1.64a1.91 1.91 0 0 1 2.4-2.6v-6.82a3.21 3.21 0 0 0 -2.5-3.16 15 15 0 0 0 -3.5-.44z" fill="#302d3d"/><path d="m68.41 78.14v-7.29a1.88 1.88 0 0 1 2.38-1.85l-.73-1.56a1.87 1.87 0 0 1 1.06-2.57l1.58-.56-1.58-.56a1.87 1.87 0 0 1 -1.06-2.57l.73-1.56a1.87 1.87 0 0 1 -2.38-1.8v-6.82a5.22 5.22 0 0 1 4-5.1 14.32 14.32 0 0 1 10.29.87 14.93 14.93 0 0 1 7.68 10.09 22 22 0 0 1 -1.84 15.04 22.73 22.73 0 0 1 -13.14 11.2 5.26 5.26 0 0 1 -6.99-4.96zm2-7.11v7.11a3.26 3.26 0 0 0 4.34 3.07 20.71 20.71 0 0 0 12-10.21 19.93 19.93 0 0 0 1.74-13.69 12.9 12.9 0 0 0 -6.63-8.77 12.49 12.49 0 0 0 -9-.73 3.24 3.24 0 0 0 -2.45 3.19v6.7a1.87 1.87 0 0 1 2.32 2.57l-.81 1.73 1.78.63a1.88 1.88 0 0 1 0 3.54l-1.78.63.81 1.71a1.87 1.87 0 0 1 -2.32 2.49z" fill="#302d3d"/></g></svg>