<svg height="512" viewBox="0 0 96 96" width="512" xmlns="http://www.w3.org/2000/svg"><g id="Turnip"><path d="m61.54 37.25c-11.83-9.2-10.9-28.2 2.06-35.7 11.97 9.32 10.79 28.28-2.06 35.7z" fill="#35ca8c"/><path d="m62.92 13.37-1.38 23.88" fill="#35ca8c"/><path d="m42.1 52.79c-10.73-10.51-26-13.15-34.69-5.95-7.73 6.39-8.24 18.16-2.41 28.72a14.69 14.69 0 0 1 1.9 6.86c0 3.27-4.17 10.4-4.17 10.4s7.13-4.19 10.39-4.17a14.89 14.89 0 0 1 7 1.94c9.88 5.41 20.88 5.25 27.46-1.31 8.64-8.64 6.21-25.05-5.48-36.49z" fill="#644b96"/><path d="m40 81.13c-6.57 6.56-17.62 6.73-27.57 1.31a15.37 15.37 0 0 0 -5.71-1.86 15 15 0 0 0 -1.74-5c-10.31-18.76.71-36.68 20.61-32.08 18.92 4.36 24.96 27.05 14.41 37.63z" fill="#644b96"/><path d="m29.43 54.61a1.44 1.44 0 0 0 1-2.63 20 20 0 0 0 -11.23-3.19 1.4 1.4 0 0 0 -.54 2.68 46.51 46.51 0 0 0 10.77 3.14z" fill="#736fb9"/><path d="m33.68 59.88a50.61 50.61 0 0 1 -20.87-6 3.19 3.19 0 0 0 -4.45 1.28c-2.5 5.13 2.44 10.43 7.07 10.68a20.92 20.92 0 0 1 16.73 10.6 2.26 2.26 0 0 0 3.55.5c3.14-3.12 3.91-7.94 3.18-12.25a5.81 5.81 0 0 0 -5.21-4.81z" fill="#736fb9"/><path d="m47.58 89.28c-6.58 6.56-17.58 6.72-27.58 1.31a14.89 14.89 0 0 0 -6.95-1.94c-3.26 0-10.39 4.17-10.39 4.17s4.18-7.13 4.17-10.4a12.82 12.82 0 0 0 -.16-1.84 15.37 15.37 0 0 1 5.71 1.86c10 5.42 21 5.25 27.57-1.31 7.31-7.31 6.69-20.18-.75-30.89a38.08 38.08 0 0 1 2.88 2.55c11.71 11.44 14.14 27.85 5.5 36.49z" fill="#463273"/><path d="" fill="#eefcc2"/><path d="m40.46 93.52a22.5 22.5 0 0 1 -9.77.68 28.32 28.32 0 0 1 -6.24-1.59 43.87 43.87 0 0 1 -5.29-2.46 14.44 14.44 0 0 0 -6.09-1.5c-3.21 0-10.17 4-10.38 4.16.07-.14.51-.88.51-.9 1.25-2.3 3.09-5.89 3.56-8.47a13.44 13.44 0 0 0 -1.76-7.89 29.53 29.53 0 0 1 -3.94-14.63l2.78 4.18a14.87 14.87 0 0 0 11.29 6.7 15.06 15.06 0 0 1 12.87 9.85 17.19 17.19 0 0 0 2 4.35c2.79 4.18 6 5.33 10.46 7.52z" fill="#eefcc2"/><path d="m2.68 92.81s0 .02 0 0z" fill="#463273"/><path d="m30 86c-2.37-3.58-1.63-6-5.57-9.89a14.45 14.45 0 0 0 -9.34-4.33 14.87 14.87 0 0 1 -11.25-6.68l-2.78-4.18a27.9 27.9 0 0 0 2 10.65 14.22 14.22 0 0 0 8.09 3.21 14.45 14.45 0 0 1 9.34 4.33 3.28 3.28 0 0 1 -3.39 5.45 57.25 57.25 0 0 1 -6.19-2.84 3.1 3.1 0 0 0 -4.28 2.16c-.69 3.41-3.73 8.46-4 8.93.21-.12 7.17-4.18 10.38-4.16a14.44 14.44 0 0 1 6.09 1.5 43.11 43.11 0 0 0 5.29 2.46 25.53 25.53 0 0 0 15.26 1.13 7.08 7.08 0 0 0 .75-.22c-4.4-2.18-7.61-3.34-10.4-7.52z" fill="#eeca8b"/><path d="m87.59 63.75c-3.89-8.67-12.59-17.31-21.18-21.18a16.17 16.17 0 0 1 21.18 21.18z" fill="#35ca8c"/><path d="m17.22 31.78a45.78 45.78 0 0 1 30 0 16.17 16.17 0 0 0 -30 0z" fill="#35ca8c"/><g fill="#302d3d"><path d="m45.44 92.08a1 1 0 0 1 -.71-.29l-9.57-9.57a1 1 0 0 1 0-1.41 1 1 0 0 1 1.42 0l9.57 9.57a1 1 0 0 1 -.71 1.7z"/><path d="m23.82 67.64a1 1 0 0 1 -.71-.3l-5.47-5.47a1 1 0 0 1 0-1.41 1 1 0 0 1 1.42 0l5.47 5.47a1 1 0 0 1 -.71 1.71z"/><path d="m43.62 77.1a1 1 0 0 1 -.71-.29l-2.91-2.89a1 1 0 0 1 1.41-1.41l2.89 2.89a1 1 0 0 1 -.68 1.7z"/><path d="m18 51.53a1 1 0 0 1 -.7-.29l-5.42-5.42a1 1 0 0 1 0-1.42 1 1 0 0 1 1.41 0l5.42 5.42a1 1 0 0 1 -.71 1.71z"/><path d="m5.51 61.2a1 1 0 0 1 -.71-.29l-3.73-3.73a1 1 0 0 1 1.41-1.41l3.73 3.73a1 1 0 0 1 -.7 1.7z"/><path d="m20.49 86.34a1 1 0 0 1 -.7-.29l-6.7-6.71a1 1 0 0 1 0-1.41 1 1 0 0 1 1.41 0l6.7 6.7a1 1 0 0 1 -.71 1.71z"/><path d="m40.39 61a1 1 0 0 1 -.71-.3l-5.45-5.45a1 1 0 0 1 1.41-1.42l5.46 5.46a1 1 0 0 1 -.71 1.71z"/><path d="m42.1 53.79a1 1 0 0 1 -.7-1.71 19.67 19.67 0 0 0 4.83-20 1 1 0 1 1 1.9-.61 21.67 21.67 0 0 1 -5.32 22 1 1 0 0 1 -.71.32z"/><path d="m42.1 53.79a1 1 0 0 1 -.7-1.71c7.06-7.08 16.18-10.9 25.05-10.51a1 1 0 0 1 -.08 2c-8.17-.36-17 3.36-23.56 9.93a1 1 0 0 1 -.71.29z"/><path d="m42.1 53.79a1 1 0 0 1 -.7-1.71l3.45-3.4a80.08 80.08 0 0 1 34.08-19.84 1 1 0 0 1 .55 1.93 78 78 0 0 0 -33.22 19.34l-3.46 3.39a1 1 0 0 1 -.7.29z"/><path d="m60.92 38c-12.36-9.58-11.41-29.44 2.18-37.31a1 1 0 0 1 1.12.07 22.9 22.9 0 0 1 8.56 15.45 22.3 22.3 0 0 1 -10.78 21.91 1 1 0 0 1 -1.08-.12zm2.6-35.27c-11.59 7.27-12.44 24.5-1.9 33.27a20.3 20.3 0 0 0 9.17-19.59 20.91 20.91 0 0 0 -7.27-13.64z"/><path d="m61.54 38.25a1 1 0 0 1 -1-1.06l1.38-23.88a1 1 0 1 1 2 .12l-1.38 23.88a1 1 0 0 1 -1 .94z"/><path d="m19.54 91.47a13.84 13.84 0 0 0 -6.47-1.82c-2.41 0-7.83 2.83-9.89 4a1 1 0 0 1 -1.37-1.36c1.13-1.92 4.05-7.44 4-9.89a13.66 13.66 0 0 0 -1.74-6.4c-6.26-11.42-5.17-23.47 2.7-30 9.09-7.52 24.91-4.88 36 6 6.92 6.76 10.91 15.38 11 23.65.07 16.98-16.71 25.35-34.23 15.82zm-6.49-3.82a15.93 15.93 0 0 1 7.45 2.06c15.79 8.61 31.34 1.76 31.25-14 0-7.62-3.91-15.93-10.35-22.24-10.4-10.14-25.05-12.73-33.35-5.86-7.12 5.88-8.05 16.91-2.22 27.46a15.81 15.81 0 0 1 2 7.35c0 2.12-1.46 5.48-2.69 7.92 2.45-1.23 5.79-2.69 7.91-2.69z"/><path d="m19.54 91.47a13.84 13.84 0 0 0 -6.48-1.82c-2.39 0-7.82 2.83-9.88 4a1 1 0 0 1 -1.37-1.37c1.13-1.92 4.05-7.44 4-9.89a13.52 13.52 0 0 0 -1.74-6.39 30.55 30.55 0 0 1 -4-15.14 1 1 0 0 1 1.83-.53l2.79 4.18a13.87 13.87 0 0 0 10.5 6.25 16 16 0 0 1 13.81 10.55l.45 1.25a14.31 14.31 0 0 0 7.07 7.87l4.42 2.2a1 1 0 0 1 -.14 1.85c-6.98 2.16-14.8.52-21.26-3.01zm-6.49-3.82a15.75 15.75 0 0 1 7.45 2.07c5.7 3.09 11.75 4.31 17 3.46l-1.94-1a16.33 16.33 0 0 1 -8.07-9l-.41-1.18a14 14 0 0 0 -12-9.19 15.93 15.93 0 0 1 -12.08-7.15l-.75-1.12a30.21 30.21 0 0 0 3.57 10.53 15.57 15.57 0 0 1 2 7.35c0 2.11-1.45 5.47-2.68 7.92 2.45-1.23 5.79-2.69 7.91-2.69z"/><path d="m86.68 64.16a44.68 44.68 0 0 0 -20.68-20.68 1 1 0 0 1 0-1.83c14.17-6 28.48 8.31 22.49 22.49a1 1 0 0 1 -1.81.02zm-17.68-21.41a47.88 47.88 0 0 1 18.4 18.39 15.18 15.18 0 0 0 -18.4-18.39z"/><path d="m47.18 32.79c-.76 0-5.48-2.53-15-2.53a41.61 41.61 0 0 0 -14.62 2.46 1 1 0 0 1 -1.28-1.31c5.79-14.25 26-14.25 31.81 0a1 1 0 0 1 -.91 1.38zm-2-2.73a15.18 15.18 0 0 0 -26 0 48 48 0 0 1 26.03 0z"/></g><path d="m65.76 34.88c-.19-14.97 15.24-26.1 29.24-20.65.14 15.16-15.42 26.07-29.24 20.65z" fill="#bedc93"/><path d="m85.29 21.06-19.53 13.82" fill="#bedc93"/><path d="m65.4 35.81a1 1 0 0 1 -.64-.91c-.19-15.64 15.9-27.33 30.55-21.6a1 1 0 0 1 .64.92 22.89 22.89 0 0 1 -6.74 16.33 22.26 22.26 0 0 1 -23.81 5.26zm1.36-1.62a20.34 20.34 0 0 0 21-5.06 20.86 20.86 0 0 0 6.14-14.21c-12.9-4.52-26.83 5.54-27.14 19.27z" fill="#302d3d"/><path d="m65.76 35.88a1 1 0 0 1 -.58-1.81l19.53-13.82a1 1 0 1 1 1.15 1.63c-21 14.87-19.63 14-20.1 14z" fill="#302d3d"/></g></svg>