<svg height="512" viewBox="0 0 96 96" width="512" xmlns="http://www.w3.org/2000/svg"><g id="Washabi"><path d="m64.28 7.83 4.61 3.65-7.14 12.46-7.95-6.3z" fill="#e8ff9a"/><path d="m61.75 24.94c-.49 0 .06.32-8.57-6.51a1 1 0 0 1 -.07-1.52l10.49-9.81a1 1 0 0 1 1.3 0l4.61 3.64a1 1 0 0 1 .25 1.26l-7.14 12.44a1 1 0 0 1 -.87.5zm-6.42-7.36 6.13 4.85 6.13-10.7-3.25-2.58z" fill="#302d3d"/><path d="m61.45 4.16-4-3.16-6.17 13.94 7.2 3.32z" fill="#53c58c"/><path d="m73.11 13.39 4 3.16-12.14 9.22-4.9-6.24z" fill="#53c58c"/><path d="m58.48 19.26c-.32 0 .22.21-7.62-3.41a1 1 0 0 1 -.5-1.32l6.18-13.94a1 1 0 0 1 1.53-.37l4 3.16a1 1 0 0 1 .36 1l-3 14.1a1 1 0 0 1 -.95.78zm-5.89-4.82 5.17 2.39 2.58-12.27-2.5-2z" fill="#302d3d"/><path d="m65 26.77a1 1 0 0 1 -.79-.38l-4.89-6.25a1 1 0 0 1 .36-1.52l13-6.13a1 1 0 0 1 1 .12l4 3.16a1 1 0 0 1 0 1.58c-12.95 9.85-12.22 9.42-12.68 9.42zm-3.37-6.87 3.52 4.48 10.33-7.84-2.5-2z" fill="#302d3d"/><path d="m67 35.91a13.47 13.47 0 0 1 -2 2.67c-3.17 3.39-5.07 1.62-8.24 5s-1.27 5.16-4.44 8.55-5.07 1.63-8.24 5-1.27 5.16-4.44 8.55-5.07 1.63-8.24 5-1.2 5.22-4.4 8.61-5.07 1.63-8.24 5l.07-.12a8.86 8.86 0 0 1 -12 .9 8.92 8.92 0 0 1 -1.77-11.93c2.45-3.77.38-5.26 2.92-9.07s4.73-2.43 7.3-6.29.42-5.31 3-9.17 4.73-2.43 7.3-6.29.42-5.31 3-9.17 4.73-2.44 7.31-6.31.42-5.3 3-9.17a12.84 12.84 0 0 1 18.65-3l6.24 4.94a12.85 12.85 0 0 1 3.22 16.3z" fill="#93e39a"/><path d="m40.19 18.5a2.68 2.68 0 0 0 -2.62 2.14c-.41 2 .09 3.5-1.7 6.2-2.58 3.87-4.73 2.44-7.31 6.31s-.42 5.3-3 9.17-4.73 2.42-7.3 6.29c-1.84 2.78-1.26 4.3-1.72 6.39a2.44 2.44 0 0 0 2.35 3 2.4 2.4 0 0 0 2.4-2.1 7.94 7.94 0 0 1 1.43-3.82c2.57-3.87 4.73-2.43 7.3-6.29s.42-5.31 3-9.17 4.73-2.44 7.31-6.31c2-3 1.08-5.27 2.26-8a2.69 2.69 0 0 0 -2.39-3.84z" fill="#daff9a"/><path d="m67 35.91a12.83 12.83 0 0 0 -3.27-16.26l-1-.76a12.82 12.82 0 0 1 -3.06 12.39c-3.17 3.4-5.06 1.63-8.23 5s-8.44 9.43-10.83 10.93c-3.93 2.48-2.55 4.67-6.48 7.15s-5.3.29-9.23 2.76-2.54 4.67-6.47 7.15-5.31.29-9.23 2.73a7.91 7.91 0 0 0 -2.85 2.87 7.78 7.78 0 0 1 -1.29 3.23 9.23 9.23 0 0 0 -1.48 5.9 8.86 8.86 0 0 0 15.28 5.2l-.07.12c3.17-3.4 5.06-1.63 8.24-5s1.28-5.16 4.45-8.56 5.07-1.62 8.24-5 1.27-5.16 4.44-8.55 5.07-1.62 8.24-5 1.27-5.16 4.44-8.55c3.49-3.73 5.6-1.26 9.29-6.28.21-.38.87-1.38.87-1.47z" fill="#52b69a"/><path d="m48.36 20.92a1 1 0 0 1 -.62-.21l-1.67-1.32a1 1 0 0 1 -.16-1.39 1 1 0 0 1 1.4-.16l1.69 1.3a1 1 0 0 1 -.64 1.78z" fill="#302d3d"/><path d="m58.81 32.05c-.46 0-.58-.19-1.79-1.14a1 1 0 0 1 -.16-1.41 1 1 0 0 1 1.4-.16l1.17.92a1 1 0 0 1 -.62 1.79z" fill="#302d3d"/><path d="m45.64 34.44c-.44 0-.46-.09-2.37-1.6a1 1 0 1 1 1.24-1.57l1.75 1.39a1 1 0 0 1 -.62 1.78z" fill="#302d3d"/><path d="m43.89 48.5c-.45 0-.46-.09-2.38-1.6a1 1 0 0 1 -.16-1.41 1 1 0 0 1 1.4-.16l1.76 1.39a1 1 0 0 1 -.62 1.78z" fill="#302d3d"/><path d="m26.7 52.18c-.48 0-.68-.26-1.84-1.18a1 1 0 1 1 1.25-1.56l1.21 1a1 1 0 0 1 -.62 1.74z" fill="#302d3d"/><path d="m31.13 64.62c-.44 0-.46-.09-2.37-1.6a1 1 0 1 1 1.24-1.57l1.75 1.39a1 1 0 0 1 -.62 1.78z" fill="#302d3d"/><path d="m20.46 70.16c-.46 0-.59-.19-1.79-1.14a1 1 0 1 1 1.24-1.57l1.17.93a1 1 0 0 1 -.62 1.78z" fill="#302d3d"/><path d="m86.41 43.13 2.71 5.2-11.6 8.47-4.69-9z" fill="#e8ff9a"/><path d="m11.49 74.92c-.44 0-.58-.18-1.43-.85a1 1 0 1 1 1.24-1.57l.81.64a1 1 0 0 1 -.62 1.78z" fill="#302d3d"/><path d="m13.7 83.7c-.49 0-.7-.28-1.7-1.07a1 1 0 0 1 -.17-1.4 1 1 0 0 1 1.41-.17l1.08.86a1 1 0 0 1 -.62 1.78z" fill="#302d3d"/><path d="m43.09 59.53c-.48 0-.32 0-4.64-3.39a1 1 0 0 1 -.16-1.41 1 1 0 0 1 1.4-.16l4 3.18a1 1 0 0 1 -.6 1.78z" fill="#302d3d"/><path d="m77.52 57.8a1 1 0 0 1 -.89-.54l-4.69-9a1 1 0 0 1 .56-1.4l13.58-4.68a1 1 0 0 1 1.21.48l2.71 5.21a1 1 0 0 1 -.3 1.27c-12.61 9.21-11.7 8.66-12.18 8.66zm-3.27-9.43 3.62 6.93 10-7.27-1.92-3.68z" fill="#302d3d"/><path d="m34.9 34.51c-.5 0-.36 0-4.35-3.16a1 1 0 0 1 -.16-1.41 1 1 0 0 1 1.4-.16l3.73 2.95a1 1 0 0 1 -.62 1.78z" fill="#302d3d"/><path d="m85.32 38.62-2.36-4.52-11.33 10.2 5.22 5.98z" fill="#53c58c"/><path d="m92.2 51.8 2.36 4.52-14.85 3.46-1.92-7.7z" fill="#53c58c"/><path d="m57.31 43.67c-.48 0-.42-.06-3.25-2.29a1 1 0 0 1 -.16-1.38 1 1 0 0 1 1.4-.16l2.63 2.08a1 1 0 0 1 -.62 1.75z" fill="#302d3d"/><path d="m76.09 50.94-5.21-6a1 1 0 0 1 .08-1.4l11.33-10.2a1 1 0 0 1 1.56.28l2.35 4.52a1 1 0 0 1 -.07 1.05l-8.47 11.68a1 1 0 0 1 -1.57.07zm-3.09-6.55 3.75 4.28 7.36-10.14-1.47-2.82z" fill="#302d3d"/><path d="m79.7 60.78a1 1 0 0 1 -1-.76l-1.92-7.7a1 1 0 0 1 1-1.24l14.41-.28a1 1 0 0 1 .9.54l2.36 4.52a1 1 0 0 1 -.66 1.44c-15.93 3.7-14.91 3.48-15.09 3.48zm-.64-7.72 1.38 5.52 12.63-2.94-1.47-2.82z" fill="#302d3d"/><path d="m12.36 88a9.87 9.87 0 0 1 -8.14-15.41c2.24-3.43.24-5 2.93-9.08s5-2.81 7.3-6.29.29-5.12 3-9.17 5-2.81 7.3-6.29.29-5.12 3-9.17 5-2.82 7.31-6.3.28-5.11 3-9.18a13.84 13.84 0 0 1 20.1-3.18l6.24 4.94a13.84 13.84 0 0 1 1.5 20.29c-3.45 3.71-5.43 2-8.33 5.11s-1.11 5-4.44 8.56-5.37 1.94-8.24 5-1.12 5-4.44 8.56-5.34 1.92-8.24 5-1.13 5-4.45 8.57-5.38 2-8.24 5a.9.9 0 0 1 -.19.15 9.86 9.86 0 0 1 -6.97 2.89zm27.33-69.78c-2.32 3.49-.28 5.11-3 9.18s-5 2.81-7.31 6.3-.29 5.12-3 9.17-5 2.82-7.3 6.29-.28 5.1-3 9.17-5 2.82-7.3 6.29-.28 5.07-2.88 9.06a7.87 7.87 0 0 0 12.23 9.84.65.65 0 0 1 .18-.15c3.14-3.18 5.22-1.8 8-4.76s1.12-5 4.45-8.56 5.34-1.92 8.24-5 1.1-5 4.44-8.55 5.4-2 8.24-5 1.09-5 4.44-8.55 5.3-1.86 8.32-5.11a11.81 11.81 0 0 0 -1.3-17.36l-6.25-4.98a11.82 11.82 0 0 0 -17.2 2.72z" fill="#302d3d"/><path d="m59.18 41.72a12.84 12.84 0 0 1 18.23 4.92l3.69 7.06a12.83 12.83 0 0 1 -6.4 17.76c-4.38 1.85-5.43-.52-9.68 1.27s-3.28 4.19-7.55 6-5.29-.58-9.57 1.22-3.27 4.19-7.55 6-5.28-.59-9.57 1.21-3.27 4.2-7.56 6-5.29-.58-9.57 1.22l.11-.07a8.87 8.87 0 0 1 -8.08-15.75c3.81-2.45 2.48-4.62 6.37-7.08s5.31-.29 9.24-2.77 2.54-4.67 6.47-7.14 5.3-.29 9.23-2.77 2.54-4.67 6.47-7.15 5.32-.29 9.25-2.77 2.54-4.67 6.47-7.16z" fill="#93e39a"/><path d="m59.42 45.36a2.15 2.15 0 0 0 -3.62.22 8.08 8.08 0 0 1 -3.09 3.3c-3.93 2.48-5.32.29-9.25 2.77s-2.54 4.67-6.46 7.15-5.31.29-9.23 2.77-2.55 4.67-6.47 7.14a8.5 8.5 0 0 1 -2.51 1.12 2.33 2.33 0 0 0 -1.79 2.17 2.25 2.25 0 0 0 2.39 2.27 8.32 8.32 0 0 0 4.66-1.39c3.93-2.48 2.54-4.67 6.47-7.15s5.31-.28 9.23-2.76 2.55-4.67 6.48-7.15 5.31-.29 9.24-2.77c2.72-1.72 2.9-3.3 4.07-4.94a2.22 2.22 0 0 0 0-2.59z" fill="#daff9a"/><path d="m74.7 71.46c-4.38 1.83-5.49-.5-9.68 1.27s-3.28 4.19-7.55 6-5.29-.58-9.57 1.22-3.27 4.19-7.55 6-5.28-.59-9.57 1.21-3.27 4.2-7.56 6-5.29-.58-9.57 1.22l.11-.07a8.87 8.87 0 0 1 -12.08-10.15 8.84 8.84 0 0 0 8.18.67l-.11.07c4.28-1.8 5.29.59 9.57-1.22s3.28-4.19 7.56-6 5.29.59 9.57-1.21 3.27-4.19 7.55-6 5.28.59 9.56-1.21 3.28-4.2 7.55-6 5.29.59 9.57-1.21l.12-.05a12.81 12.81 0 0 0 7.78-13.11l2.52 4.81a12.83 12.83 0 0 1 -6.4 17.76z" fill="#52b69a"/><g fill="#302d3d"><path d="m1.57 90.69a9.92 9.92 0 0 1 3.57-13c3.45-2.22 2.28-4.5 6.38-7.09s5.65-.5 9.23-2.76 2.34-4.54 6.47-7.15 5.65-.5 9.24-2.76 2.32-4.54 6.47-7.16 5.69-.53 9.24-2.77 2.33-4.53 6.48-7.15a13.84 13.84 0 0 1 19.65 5.3l3.7 7.09a13.84 13.84 0 0 1 -6.89 19.14c-4.74 2-5.75-.39-9.69 1.27s-3.06 4.11-7.55 6-5.71-.41-9.56 1.21-3 4.09-7.55 6-5.71-.41-9.57 1.22-3.07 4.1-7.56 6-5.73-.4-9.57 1.23a10 10 0 0 1 -12.49-4.62zm58.15-48.12c-3.59 2.27-2.32 4.53-6.48 7.16s-5.7.53-9.25 2.77-2.34 4.5-6.47 7.15-5.7.53-9.23 2.76-2.29 4.59-6.47 7.15-5.64.49-9.24 2.77-2.31 4.47-6.36 7.08a7.87 7.87 0 0 0 7.15 14 1 1 0 0 1 .23-.06 9.2 9.2 0 0 1 5-.55 7.34 7.34 0 0 0 4.29-.54c3.86-1.62 3.07-4.11 7.56-6s5.72.4 9.56-1.22 2.99-4.14 7.5-6.04 5.73.4 9.57-1.22 3.05-4.09 7.55-6c4.66-2 5.45.51 9.68-1.27a11.82 11.82 0 0 0 5.9-16.38l-3.69-7.03a11.82 11.82 0 0 0 -16.8-4.53z"/><path d="m66.93 48.66a1 1 0 0 1 -.88-.54l-1-1.88a1 1 0 0 1 1.78-.93l1 1.89a1 1 0 0 1 -.9 1.46z"/><path d="m71.94 63.08a1 1 0 0 1 -.89-.53l-.69-1.33a1 1 0 0 1 .42-1.34 1 1 0 0 1 1.35.42l.69 1.32a1 1 0 0 1 -.88 1.46z"/><path d="m58.94 59.89a1 1 0 0 1 -.89-.53l-1-2a1 1 0 1 1 1.78-.92l1 2a1 1 0 0 1 -.89 1.45z"/><path d="m51.6 72a1 1 0 0 1 -.89-.53l-1-2a1 1 0 0 1 .43-1.35 1 1 0 0 1 1.34.43l1 2a1 1 0 0 1 -.88 1.45z"/><path d="m34.4 68.36a1 1 0 0 1 -.89-.54l-.71-1.37a1 1 0 0 1 1.77-.93l.72 1.37a1 1 0 0 1 -.89 1.47z"/><path d="m33.37 81.52a1 1 0 0 1 -.89-.53l-1-2a1 1 0 1 1 1.77-.92l1 2a1 1 0 0 1 -.88 1.45z"/><path d="m21.36 82.22a1 1 0 0 1 -.88-.54l-.69-1.32a1 1 0 0 1 1.77-.93l.69 1.33a1 1 0 0 1 -.89 1.46z"/><path d="m11.23 82.91a1 1 0 0 1 -.89-.54l-.48-.92a1 1 0 0 1 1.78-.92l.48.92a1 1 0 0 1 -.89 1.46z"/><path d="m9.66 91.82a1 1 0 0 1 -.88-.53l-.64-1.23a1 1 0 1 1 1.77-.92l.64 1.22a1 1 0 0 1 -.89 1.46z"/><path d="m46.36 81.75a1 1 0 0 1 -.89-.53l-2.37-4.54a1 1 0 0 1 1.78-.93l2.37 4.54a1 1 0 0 1 -.89 1.46z"/><path d="m49.1 55.57a1 1 0 0 1 -.89-.54l-2.21-4.21a1 1 0 0 1 1.78-.92l2.22 4.21a1 1 0 0 1 -.9 1.46z"/><path d="m65.82 73.08a1 1 0 0 1 -.89-.54l-1.55-3a1 1 0 0 1 .42-1.35 1 1 0 0 1 1.35.42l1.55 3a1 1 0 0 1 -.88 1.47z"/></g></g></svg>