<svg height="512" viewBox="0 0 96 96" width="512" xmlns="http://www.w3.org/2000/svg"><g id="Watercress"><path d="m58.8 27.05c.06 5.49 5.18 11.51 11.87 11.22.1 7.54 5.73 11.81 11.21 11.87 7.34.08 13.19-7.65 13.08-17.27-.3-26.13-36.35-22.34-36.16-5.82z" fill="#99d98c"/><path d="m81.94 45.14c-2.48 0-6.2-1.9-6.28-6.94l-.07-5.14-5.38.22c-4.5 0-9.07-6-4.56-10.61 2.27-2.29 6.25-3.67 10.4-3.67 3.22 0 13.76 1 13.91 14 .04 4-1.29 7.79-3.58 10.1a6.16 6.16 0 0 1 -4.44 2.04z" fill="#3fa78c"/><path d="m70.67 39.27a1 1 0 0 1 -.71-1.7l13.8-13.81a1 1 0 0 1 1.42 1.42l-13.8 13.82a1 1 0 0 1 -.71.27z" fill="#302d3d"/><path d="m84.1 37.8h-12a1 1 0 0 1 -1-1v-12a1 1 0 0 1 2 0v11h11a1 1 0 0 1 0 2z" fill="#302d3d"/><path d="m85.51 30.84h-6.41a1 1 0 0 1 -1-1v-6.41a1 1 0 0 1 2 0v5.41h5.41a1 1 0 0 1 0 2z" fill="#302d3d"/><path d="m39.17 71.15c-.07-5.78-5.46-12.15-12.51-11.82-.12-7.95-6.05-12.45-11.83-12.52-7.73-.09-13.91 8.06-13.83 18.19.36 27.57 38.37 23.57 38.17 6.15z" fill="#99d98c"/><path d="m21 80c-3.48 0-14.8-1.13-15-15 0-4.39 1.43-8.47 3.89-11a6.85 6.85 0 0 1 4.81-2.23c2.8 0 6.88 2.08 7 7.59l.07 5.14 5.14-.22c3.86-.17 7.26 3.57 7.3 6.89.03 5.83-7.4 8.83-13.21 8.83z" fill="#3fa78c"/><path d="m12.1 74.88a1 1 0 0 1 -.71-1.71l14.61-14.55a1 1 0 0 1 1.36 1.38l-14.55 14.58a1 1 0 0 1 -.71.3z" fill="#302d3d"/><path d="m25.1 74.49a1 1 0 0 1 -1-1v-11.61h-11.61a1 1 0 0 1 0-2h12.61a1 1 0 0 1 1 1v12.61a1 1 0 0 1 -1 1z" fill="#302d3d"/><path d="m17.77 76a1 1 0 0 1 -1-1v-5.79h-5.77a1 1 0 0 1 0-2h6.76a1 1 0 0 1 1 1v6.79a1 1 0 0 1 -.99 1z" fill="#302d3d"/><path d="m68.25 66.16a5.4 5.4 0 0 0 5.43 5.13 5.25 5.25 0 0 0 5.12 5.42c3.36 0 6-3.49 6-7.89-.16-11.94-16.63-10.21-16.55-2.66z" fill="#d0f78c"/><g fill="#302d3d"><path d="m60.86 91.32a1 1 0 0 1 -1-1v-28.14a34.77 34.77 0 0 1 10.26-24.77l7.29-7.3a1 1 0 1 1 1.42 1.42l-7.3 7.29a32.82 32.82 0 0 0 -9.67 23.36v28.14a1 1 0 0 1 -1 1z"/><path d="m69.71 39.27a12.84 12.84 0 0 1 -11.91-12.21c-.21-17.84 37.84-21.68 38.2 5.8.07 5.75-1.89 11-5.37 14.52-7.85 7.81-20.11 2.62-20.92-8.11zm2-1c.09 7 5.34 10.82 10.23 10.88a10 10 0 0 0 7.24-3.15c3.1-3.13 4.82-7.9 4.82-13.11-.33-24.89-34.38-20.98-34.2-5.89.06 5.15 4.89 10.48 10.82 10.23a1 1 0 0 1 1.05 1.03z"/><path d="m21 86c-22.51 0-25.71-25.85-15.31-36.24 8.21-8.22 21.1-2.76 21.92 8.56a13.5 13.5 0 0 1 12.56 12.82c.11 9.36-9.72 14.86-19.17 14.86zm-13.9-34.83c-3.28 3.28-5.1 8.32-5.1 13.83.3 26.26 36.32 22.23 36.13 6.17-.06-5.4-5.12-11.1-11.47-10.85a1 1 0 0 1 -1-1c-.15-10.25-11.38-15.32-18.56-8.15z"/><path d="m78.86 77.71a6.18 6.18 0 0 1 -6.11-5.46 6.47 6.47 0 0 1 -5.5-6.08c-.07-6.08 8.54-8.78 14-5.72 7.58 4.27 4.91 17.26-2.39 17.26zm-5.18-7.42a1 1 0 0 1 1 1 4.23 4.23 0 0 0 4.18 4.44c5.19 0 7.22-10.24 1.41-13.51-4.16-2.34-11.07-.43-11 4a4.4 4.4 0 0 0 4.41 4.07z"/><path d="m60.86 83.18a1 1 0 0 1 -1-1v-28.18a32.83 32.83 0 0 0 -9.68-23.36 1 1 0 0 1 1.41-1.41 34.78 34.78 0 0 1 10.27 24.77v28.18a1 1 0 0 1 -1 1z"/><path d="m53.25 91.32a1 1 0 0 1 -1-1v-33.56a9 9 0 0 0 -15.25-6.33l-14.3 14.26a1 1 0 1 1 -1.41-1.41l14.25-14.28a11 11 0 0 1 18.71 7.74v33.58a1 1 0 0 1 -1 1z"/><path d="m53.25 88.19a1 1 0 0 1 -1-1 27.06 27.06 0 0 1 11.75-22.6 1 1 0 1 1 1.13 1.65 25.07 25.07 0 0 0 -10.86 21 1 1 0 0 1 -1.02.95z"/><path d="m53.25 77.66a1 1 0 0 1 -1-1v-2.49a18.27 18.27 0 0 0 -5.72-13.25 1 1 0 0 1 0-1.41 1 1 0 0 1 1.42 0 20.28 20.28 0 0 1 6.34 14.7v2.49a1 1 0 0 1 -1.04.96z"/><path d="m60.86 91.32a1 1 0 0 1 -1-1 15.93 15.93 0 0 1 4.68-11.32l8.46-8.42a1 1 0 0 1 1.41 0 1 1 0 0 1 0 1.41l-8.41 8.43a13.88 13.88 0 0 0 -4.1 9.9 1 1 0 0 1 -1.04 1z"/></g><path d="m39.67 41.84c5.48-.06 11.5-5.18 11.22-11.87 7.53-.1 11.8-5.73 11.86-11.22.09-7.33-7.64-13.18-17.26-13.07-26.13.32-22.34 36.32-5.82 36.16z" fill="#99d98c"/><path d="m39.54 36.84c-4.88 0-7.93-6.3-8-12.15 0-3.25.93-13.86 14-14 4.61 0 8.22 1.6 10.24 3.65a6.16 6.16 0 0 1 2 4.37c0 2.48-1.9 6.2-6.93 6.27l-5.15.08.22 5.14a6.79 6.79 0 0 1 -6.38 6.64z" fill="#3fa78c"/><path d="m45.76 4.68c5.64 0 10.82 2 14.24 5.37 7.77 7.77 2.7 20.06-8.12 20.88a12.85 12.85 0 0 1 -12.2 11.91c-17.93.37-21.68-38.16 6.08-38.16zm0 2c-25 0-21.38 34.16-6.22 34.16 5.23 0 10.6-4.9 10.35-10.82a1 1 0 0 1 1-1.05c9.61-.13 14.53-10.69 7.71-17.51-3.06-3.05-7.72-4.78-12.84-4.78z" fill="#302d3d"/><path d="m50.89 31a1 1 0 0 1 -.71-.29l-13.8-13.84a1 1 0 1 1 1.41-1.41l13.8 13.8a1 1 0 0 1 -.7 1.74z" fill="#302d3d"/><path d="m49.41 29.5h-12a1 1 0 0 1 0-2h11v-11a1 1 0 1 1 2 0v12a1 1 0 0 1 -1 1z" fill="#302d3d"/><path d="m42.46 22.54h-6.41a1 1 0 0 1 0-2h5.41v-5.41a1 1 0 0 1 2 0v6.41a1 1 0 0 1 -1 1z" fill="#302d3d"/></g></svg>