<svg height="512" viewBox="0 0 96 96" width="512" xmlns="http://www.w3.org/2000/svg"><g id="Yucca"><path d="m66.81 14.87 6.79-6.22a3.54 3.54 0 0 1 5.4 4.48l-5.32 8.57z" fill="#7c447e"/><path d="m73 22.41-6.86-6.83a1 1 0 0 1 0-1.45l6.79-6.22a4.55 4.55 0 0 1 6.94 5.75l-5.33 8.57a1 1 0 0 1 -1.54.18zm-4.74-7.51 5.23 5.21 4.67-7.51a2.55 2.55 0 0 0 -3.89-3.22z" fill="#302d3d"/><path d="m72.63 37-12.06 14c-15 17.47-31.43 18.09-43.65 26.34l-10.63 7.26a3.38 3.38 0 0 1 -5-4.23c2.71-5.59 1.52-3.14 5.14-10.91a38.14 38.14 0 0 1 9-12.19l15.83-14.27 20.81-24.42a13.83 13.83 0 0 1 12.93-5.14c11.11 1.56 15.84 15.5 7.63 23.56z" fill="#9a587e"/><path d="m66.3 30.66-12.06 14.05c-15.15 17.64-31.53 18.07-43.65 26.34l-7.18 4.88c3.49-7.48 5.46-12.72 12-18.66l15.85-14.27 20.81-24.42a13.85 13.85 0 0 1 16.93-3.88 13.87 13.87 0 0 1 -2.7 15.96z" fill="#bd7b7e"/><path d="m46.76 24.81c-16.7 19.61-15.44 18.19-15.61 18.3l-8.87 8a2.16 2.16 0 0 0 0 3.19c.36.32.73.65 1.11 1a2.14 2.14 0 0 0 2.83 0c10.38-9.35 9.74-8.76 9.87-8.92l15.08-17.8a2.9 2.9 0 0 0 -4.41-3.77z" fill="#e19e7e"/><g fill="#302d3d"><path d="m.43 80 5.09-11a38.85 38.85 0 0 1 9.26-12.51l15.76-14.17 20.77-24.39a14.83 14.83 0 0 1 23.59 18c-.36.49 1.21-1.4-13.56 15.8a62.26 62.26 0 0 1 -22.75 16.61c-20.38 8.66-15.2 5.86-31.73 17.09a4.38 4.38 0 0 1 -6.43-5.43zm62.5-65.66a12.74 12.74 0 0 0 -10.08 4.86l-20.85 24.47c-.09.1.56-.5-15.9 14.34a36.92 36.92 0 0 0 -8.76 11.87l-5.1 10.92a2.38 2.38 0 0 0 3.49 3c16.63-11.32 11.42-8.49 32.08-17.3a60.38 60.38 0 0 0 22-16.11c15-17.51 13.12-15.2 13.46-15.67 1.07.75 1.11.79 0 0a12.83 12.83 0 0 0 -10.34-20.43z"/><path d="m56.88 23.54c-.49 0-.22.1-5.45-4.19a1 1 0 1 1 1.27-1.54l4.82 4a1 1 0 0 1 -.64 1.73z"/><path d="m55.81 29.66c-.51 0 0 .25-7.93-6.13a1 1 0 0 1 1.26-1.53l7.3 5.9a1 1 0 0 1 -.63 1.76z"/><path d="m53 36.69c-.51 0-.54-.14-2.51-1.91a1 1 0 1 1 1.35-1.48l1.81 1.7a1 1 0 0 1 -.65 1.69z"/><path d="m47.91 32.11c-.52 0-.31.07-4.35-3.58a1 1 0 0 1 1.34-1.53l3.68 3.33a1 1 0 0 1 -.67 1.78z"/><path d="m44 36c-.5 0-.32 0-4-3.14a1 1 0 0 1 1.3-1.52l3.4 2.9a1 1 0 0 1 -.7 1.76z"/><path d="m38.2 44.64c-.49 0-.18.15-5-3.88a1 1 0 0 1 -.13-1.41 1 1 0 0 1 1.41-.13l4.36 3.65a1 1 0 0 1 -.64 1.77z"/><path d="m37.34 53.34a1 1 0 0 1 -.69-.27l-8-7.57a1 1 0 0 1 1.35-1.5l8 7.57a1 1 0 0 1 -.66 1.77z"/><path d="m34 59.4a1 1 0 0 1 -.75-.33l-1.79-2a1 1 0 0 1 1.54-1.32l1.79 2a1 1 0 0 1 -.79 1.65z"/><path d="m28.54 53.34a1 1 0 0 1 -.75-.33l-3.42-3.78a1 1 0 0 1 .08-1.42 1 1 0 0 1 1.41.08l3.42 3.78a1 1 0 0 1 -.74 1.67z"/><path d="m19.63 61.59c-.47 0-.17.14-4.8-3.54a1 1 0 0 1 1.24-1.56l4.18 3.32a1 1 0 0 1 -.62 1.78z"/><path d="m70 41.11c-.5 0-.27.07-5.78-4.39a1 1 0 0 1 -.15-1.4 1 1 0 0 1 1.41-.15l5.14 4.16a1 1 0 0 1 -.62 1.78z"/><path d="m67.05 44.5c-.45 0-.27 0-4-2.72a1 1 0 0 1 1.2-1.6l3.37 2.52a1 1 0 0 1 -.57 1.8z"/><path d="m76.52 30.76c-.53 0-.47-.07-3.6-2.88a1 1 0 0 1 1.34-1.49l2.93 2.61a1 1 0 0 1 -.67 1.76z"/><path d="m69.64 24.58c-.55 0-.32.06-5.91-5a1 1 0 1 1 1.34-1.48l5.24 4.71a1 1 0 0 1 -.67 1.77z"/></g><path d="m63.75 59.12a11 11 0 1 1 -11-11 11 11 0 0 1 11 11z" fill="#db6c83"/><path d="m59.05 54.26a11.06 11.06 0 0 1 -16.26 9.74 11.06 11.06 0 0 1 9.92-15.93 10.87 10.87 0 0 1 5.2 1.31 11 11 0 0 1 1.14 4.88z" fill="#dba8a6"/><circle cx="52.71" cy="59.12" fill="#e5d5d8" r="5.74"/><path d="m52.71 71.17a12.05 12.05 0 1 1 12-12.05 12.06 12.06 0 0 1 -12 12.05zm0-22.1a10.05 10.05 0 1 0 10 10 10.06 10.06 0 0 0 -10-10z" fill="#302d3d"/><path d="m52.71 65.86a6.74 6.74 0 1 1 6.73-6.74 6.74 6.74 0 0 1 -6.73 6.74zm0-11.47a4.74 4.74 0 1 0 4.73 4.73 4.74 4.74 0 0 0 -4.73-4.73z" fill="#302d3d"/><path d="m33.84 86 3.08.54a53.42 53.42 0 0 0 24.24-1.33c19-5.53 13.73-4.51 31.14-6.1a3 3 0 0 0 1-5.62l-9.49-4.49a33.27 33.27 0 0 0 -12.88-3.24l-18.63-.92-14-2.52c-4-.67-8.22 4.11-9.3 10.7-1 6.26 1.12 11.9 4.84 12.98z" fill="#bd7b7e"/><path d="m52.18 64.82-9.71-1.75a1.89 1.89 0 0 0 -.67 3.72c11.71 2.11 10.94 2 11.12 2 17.67.82 18.65.86 19 .89a1.95 1.95 0 0 0 .26-3.88c-.74-.07-19.95-.97-20-.98z" fill="#e19e7e"/><path d="m92.3 79.12c-17.36 1.58-12.11.55-31.14 6.1a53.42 53.42 0 0 1 -24.24 1.33c-2.53-.43-1.86-.31-3.08-.54-2.73-.8-4.61-4.07-5-8.23a5.76 5.76 0 0 0 3.16 2.48c1.22.23.55.11 3.08.54a53.42 53.42 0 0 0 24.24-1.33c19.13-5.58 13.8-4.52 31.14-6.1a2.93 2.93 0 0 0 1.48-.54l1.41.67a3 3 0 0 1 -1.05 5.62z" fill="#9a587e"/><path d="m43.68 75.44c-1 6.35-5 11-8.87 10.75-5.24-.51-6.66-7.91-5.81-13.19 1-6 4.56-10.54 8.26-10.75a4.54 4.54 0 0 1 1 0c4.11.75 6.51 6.61 5.42 13.19z" fill="#db6c83"/><path d="m33 82.77a2.32 2.32 0 0 1 -3.3-1.27c-2.94-8.06 1.7-18.89 7.62-19.23 3.87 5.97 1.38 17.4-4.32 20.5z" fill="#dba8a6"/><path d="m49.17 72.5a1 1 0 0 1 -1-1 26.68 26.68 0 0 0 -.8-7.11 1 1 0 0 1 1.93-.51 28.67 28.67 0 0 1 .87 7.65 1 1 0 0 1 -1 .97z" fill="#302d3d"/><path d="m50.24 88.22a1 1 0 0 1 -.85-1.52 29.36 29.36 0 0 0 3.61-10.23 1 1 0 0 1 2 .33 31.4 31.4 0 0 1 -3.9 10.93 1 1 0 0 1 -.86.49z" fill="#302d3d"/><path d="m59.55 69.48a1 1 0 0 1 -1-.83 30.35 30.35 0 0 0 -.73-3.23 1 1 0 0 1 .69-1.24 1 1 0 0 1 1.23.69 31.85 31.85 0 0 1 .78 3.44 1 1 0 0 1 -.97 1.17z" fill="#302d3d"/><path d="m59.84 78.24a1 1 0 0 1 -1-1.1 31.45 31.45 0 0 0 .16-3.52 1 1 0 0 1 1-1 1 1 0 0 1 1 1 35.5 35.5 0 0 1 -.17 3.74 1 1 0 0 1 -.99.88z" fill="#302d3d"/><path d="m65.11 72.5a1 1 0 0 1 -1-.9 30.45 30.45 0 0 0 -1.21-5.92 1 1 0 0 1 1.91-.6 32.19 32.19 0 0 1 1.29 6.32 1 1 0 0 1 -.99 1.1z" fill="#302d3d"/><path d="m73.76 73.21a1 1 0 0 1 -1-1 32.74 32.74 0 0 0 -.43-6.12 1 1 0 1 1 2-.33 34.34 34.34 0 0 1 .46 6.49 1 1 0 0 1 -1.03.96z" fill="#302d3d"/><path d="m78.34 71.17a1 1 0 0 1 -1-.86 28.38 28.38 0 0 0 -.67-3.31 1 1 0 0 1 1.94-.51 31.94 31.94 0 0 1 .72 3.51 1 1 0 0 1 -.99 1.17z" fill="#302d3d"/><path d="m84.84 76.13a1 1 0 0 1 -1-1 31.69 31.69 0 0 0 -.33-5.67 1 1 0 1 1 2-.29 34.53 34.53 0 0 1 .35 6 1 1 0 0 1 -1.02.96z" fill="#302d3d"/><path d="m46.15 88.35a63.38 63.38 0 0 1 -12.49-1.35h-.11c-4.27-1.25-6.64-7.32-5.52-14.12 1.19-7.23 5.78-12.29 10.45-11.52l13.94 2.52 18.58.83a34 34 0 0 1 13.26 3.34l9.51 4.55a4 4 0 0 1 -1.36 7.52c-17.5 1.59-12.35.63-30.95 6.06a54.85 54.85 0 0 1 -15.31 2.17zm-12.08-3.35 3 .53a52.81 52.81 0 0 0 23.78-1.31c18.82-5.49 13.72-4.53 31.33-6.14a2 2 0 0 0 .67-3.72l-9.51-4.54a31.87 31.87 0 0 0 -12.49-3.15l-18.62-.87c-.1 0 .71.14-14.12-2.54-3.42-.57-7.16 4-8.14 9.88-.9 5.71.88 10.91 4.1 11.86z" fill="#302d3d"/><path d="m34.74 87.18c-5.89-.58-7.66-8.39-6.68-14.33 2-12 12.16-15.52 15.82-6.57 3.42 8.42-1.73 21.48-9.14 20.9zm.16-2c5.42.3 10.15-10.67 7.1-18.18s-10.49-3-12 6.14c-.76 4.66.37 11.59 4.9 12.05z" fill="#302d3d"/><path d="m30 77.24a11.05 11.05 0 1 1 -14.24-10.58 11.06 11.06 0 0 1 14.24 10.58z" fill="#db6c83"/><path d="m21.34 84a7.1 7.1 0 0 1 -11.17 0 11 11 0 0 1 -.58-12.61 7.25 7.25 0 0 1 12.33 0 11 11 0 0 1 -.58 12.61z" fill="#dba8a6"/><circle cx="18.94" cy="77.24" fill="#e5d5d8" r="5.74"/><path d="m18.94 89.29a12 12 0 1 1 12.06-12.05 12.07 12.07 0 0 1 -12.06 12.05zm0-22.1a10.05 10.05 0 1 0 10 10 10.06 10.06 0 0 0 -10-10z" fill="#302d3d"/><path d="m18.94 84a6.74 6.74 0 1 1 6.74-6.73 6.74 6.74 0 0 1 -6.74 6.73zm0-11.47a4.74 4.74 0 1 0 4.74 4.74 4.74 4.74 0 0 0 -4.74-4.77z" fill="#302d3d"/></g></svg>