<svg height="512" viewBox="0 0 96 96" width="512" xmlns="http://www.w3.org/2000/svg"><g id="Zucchini"><path d="m57.63 7.22 4.43-2.73a23.41 23.41 0 0 1 12.81-3.49h.32a2.11 2.11 0 0 1 .38 4.17l-1.72.35a14.11 14.11 0 0 0 -7.79 4.6l-2.68 3.13z" fill="#e8ff9a"/><path d="m62.65 14-5.75-6a1 1 0 0 1 .2-1.54l4.43-2.73a24.53 24.53 0 0 1 13.68-3.73 3.1 3.1 0 0 1 .57 6.14l-1.72.36a13.15 13.15 0 0 0 -7.24 4.27l-2.69 3.13a1 1 0 0 1 -1.48.1zm-3.45-6.58 4.14 4.35 2-2.29a15.13 15.13 0 0 1 8.35-4.92l1.72-.36a1.11 1.11 0 0 0 -.24-2.2c-7.12-.13-10.53 2.07-15.97 5.42z" fill="#302d3d"/><path d="m64.16 24.31-30.74 42a17.58 17.58 0 1 1 -25.86-23.49c26.76-23.74 17.75-15.76 39-34.55a12 12 0 0 1 17.62 16z" fill="#99d98c"/><path d="m66.41 16a12 12 0 0 0 -19.87-7.73c-21.23 18.8-12.22 10.81-39 34.55a17.58 17.58 0 1 0 25.88 23.53c27.26-37.29 3.49-4.79 30.74-42a11.91 11.91 0 0 0 2.25-8.35zm-36.22 48a13.74 13.74 0 0 1 -15.8 4.76 12.24 12.24 0 0 1 -4.23-2.67 13.58 13.58 0 0 1 .06-20.27l20.6-18.29a22.64 22.64 0 0 0 3.12 5.84 22.41 22.41 0 0 0 1.43 6.89 11.82 11.82 0 0 0 4.15 5.46 3.17 3.17 0 0 1 .77 4.46z" fill="#4eb68c"/><path d="m55.26 20.38c-17.26 23.53-3.78 5.16-30.75 42.05a17.58 17.58 0 0 1 -16.51 7.06 17.58 17.58 0 0 1 -.44-26.67l39-34.55a11.92 11.92 0 0 1 7.91-3 12 12 0 0 1 .79 15.11z" fill="#d5e88c"/><path d="m29.58 37.54a2.8 2.8 0 0 0 -4.66-2.1c-14.4 12.78-13.78 12.16-14.55 13.06a3.64 3.64 0 0 0 2.87 5.92h4.23a10.76 10.76 0 0 0 8.69-4.42l.84-1.1a13.55 13.55 0 0 0 2.61-8z" fill="#a8d48c"/><path d="m55.26 20.38c-1.26 1.7-14.49 19.79-17.43 23.83a11.92 11.92 0 0 1 -2.46-4 22.41 22.41 0 0 1 -1.43-6.89 22.69 22.69 0 0 1 -3.84-8.22 12.66 12.66 0 0 1 -.31-2l16.75-14.83a11.92 11.92 0 0 1 7.91-3 12 12 0 0 1 .81 15.11z" fill="#a8d48c"/><path d="m29.28 58.65a1 1 0 0 1 -.78-1.65l12.56-15.36a1 1 0 1 1 1.55 1.26l-12.56 15.38a1 1 0 0 1 -.77.37z" fill="#302d3d"/><path d="m11.18 71.28c-3.78 0-6.37-2.4-6.45-6.55-.1-4.93 3.27-11.5 8.58-16.73l14.22-14a1 1 0 0 1 1.4 1.43l-14.21 14c-4.87 4.8-8.08 10.94-8 15.28a4.7 4.7 0 0 0 1.35 3.55c2.36 2.15 7.63.84 12.82-3.19a1 1 0 1 1 1.22 1.58c-3.92 3.03-7.8 4.63-10.93 4.63z" fill="#302d3d"/><path d="m64.16 24.31a12 12 0 0 0 -17.62-16l-9.06 8a7.89 7.89 0 0 0 -2.48 7.69 17.72 17.72 0 0 0 4 7.6 17.65 17.65 0 0 0 1.13 6.91c2 5.33 9.26 6.12 12.62 1.52z" fill="#34a0a4"/><path d="m64.16 24.31c-10.79 14.75-8.78 12-11.49 15.7-3.36 4.6-10.62 3.81-12.62-1.52a17.66 17.66 0 0 1 -1.13-6.91 17.72 17.72 0 0 1 -3.92-7.58 7.89 7.89 0 0 1 2.52-7.69l9.06-8a12 12 0 0 1 17.62 16z" fill="#3473a4"/><path d="m60.91 19.05-9.48 12.95c-3.59 4.36-8.32 3.75-12.51-.41a17.72 17.72 0 0 1 -3.92-7.59 7.89 7.89 0 0 1 2.52-7.69l9.06-8a12.11 12.11 0 0 1 14-1.43c3.95 2.28 3.05 8.44.33 12.17z" fill="#34a0a4"/><path d="m45.78 30a5.49 5.49 0 0 1 -3.12-1.74 13 13 0 0 1 -2.84-5.46 2.91 2.91 0 0 1 1-2.78l9.06-8a7.11 7.11 0 0 1 8.12-.85c.16.09.18.34.19.41a6.93 6.93 0 0 1 -1.34 4.52l-9.36 12.83a2.47 2.47 0 0 1 -1.71 1.07z" fill="#34cda4"/><g fill="#302d3d"><path d="m59.57 21.13a1 1 0 0 1 -.77-1.64 18.21 18.21 0 0 0 3.61-6.49c1.83-6.74-5.22-4.58-10.27.44a1 1 0 0 1 -1.41-1.44c8.27-8.21 15.67-6.06 13.61 1.52a20.18 20.18 0 0 1 -4 7.24 1 1 0 0 1 -.77.37z"/><path d="m47.09 37.79a18.62 18.62 0 0 1 -8.9-5.53 1 1 0 0 1 .05-1.42 1 1 0 0 1 1.41.06 16.6 16.6 0 0 0 8 5 1 1 0 0 1 -.56 1.89z"/><path d="m50 30.38c-4.53-.53-8.2-4.79-7.76-9.27a1 1 0 0 1 1.09-.9 1 1 0 0 1 .9 1.1 6.86 6.86 0 0 0 6 7.08 1 1 0 0 1 -.23 2z"/><path d="m19.24 74.56a18.58 18.58 0 0 1 -12.34-32.48l39-34.56a13 13 0 0 1 19.1 17.38l-30.74 42a18.58 18.58 0 0 1 -15.02 7.66zm-11.16-6.32a16.57 16.57 0 0 0 24.53-2.48l30.75-42a11 11 0 0 0 -16.16-14.76l-39 34.55a16.59 16.59 0 0 0 -.15 24.67z"/><path d="m39.11 38.84a18.93 18.93 0 0 1 -1.2-6.9 18.79 18.79 0 0 1 -3.91-7.73 8.83 8.83 0 0 1 2.82-8.66l9.06-8a13 13 0 0 1 19.12 17.35l-11.52 15.7c-3.81 5.22-12.07 4.34-14.37-1.76zm15.39-32.58a11 11 0 0 0 -7.3 2.74l-9.06 8a6.84 6.84 0 0 0 -2.2 6.7 16.64 16.64 0 0 0 3.73 7.17 1 1 0 0 1 .25.7 16.91 16.91 0 0 0 1.08 6.57c1.74 4.6 8 5.22 10.89 1.28 16.19-22.15 2.68-3.67 11.49-15.7a11 11 0 0 0 -8.88-17.46z"/></g><path d="m75.34 52 5.19-.37a23.54 23.54 0 0 1 13 2.86l.28.15a2.11 2.11 0 0 1 -1.59 3.87l-1.69-.48a14 14 0 0 0 -9 .46l-3.9 1.51z" fill="#e8ff9a"/><path d="m77.63 61a1 1 0 0 1 -1-.72l-2.29-8a1 1 0 0 1 .93-1.28l5.19-.36a24.42 24.42 0 0 1 13.8 3.13 3.1 3.1 0 0 1 -2.34 5.7l-1.69-.47a13.14 13.14 0 0 0 -8.4.43c-4.13 1.67-3.93 1.57-4.2 1.57zm-1-8.1 1.65 5.77 2.8-1.12a15.15 15.15 0 0 1 9.68-.49l1.69.48a1.11 1.11 0 0 0 .84-2c-6.23-3.43-10.29-3.04-16.65-2.6z" fill="#302d3d"/><path d="m79 63.9a12 12 0 0 1 -5.83 6.3l-46.74 23a17.58 17.58 0 1 1 -12-32.83l50.57-12.56a12 12 0 0 1 14 16.09z" fill="#99d98c"/><path d="m79.18 55.33a12 12 0 0 0 -14.18-7.52l-50.52 12.54a17.58 17.58 0 1 0 12 32.83l46.74-23a12 12 0 0 0 5.96-14.85zm-54.48 34.26a13.58 13.58 0 1 1 -9.26-25.36l27.05-6.71a11.78 11.78 0 0 0 3.28 18.59 1.73 1.73 0 0 1 0 3.11z" fill="#4eb68c"/><path d="m76.65 51.25a12 12 0 0 1 -6.44 8.32l-46.74 23c-17.17 8.43-25.8-16.12-10.89-21.64 1.41-.51-2.48.5 52.45-13.12a12 12 0 0 1 11.62 3.44z" fill="#d5e88c"/><path d="m76.65 51.25a12 12 0 0 1 -6.44 8.32l-28 13.77a11.82 11.82 0 0 1 .48-16 10.21 10.21 0 0 1 .52-4.09l21.79-5.44a12 12 0 0 1 11.65 3.44z" fill="#a8d48c"/><path d="m10.36 88c-10.72 0-13-7.67-2.95-14.68a1 1 0 1 1 1.14 1.64c-4.43 3.04-8.16 8.04-3.23 10.15 3.8 1.66 10.82.9 17.46-1.9l8.55-3.6a1 1 0 1 1 .77 1.85l-8.55 3.6a35.26 35.26 0 0 1 -13.19 2.94z" fill="#302d3d"/><path d="m42.19 77.13a1 1 0 0 1 -.39-1.92l9-3.8a1 1 0 0 1 .78 1.85c-9.85 4.14-9.11 3.87-9.39 3.87z" fill="#302d3d"/><path d="m22 69.08a1 1 0 0 1 -.29-2l26-8.09a1 1 0 1 1 .55 2.01c-27.8 8.61-26.02 8.08-26.26 8.08z" fill="#302d3d"/><path d="m60 76.69a7.13 7.13 0 0 1 -9.87-3.78c-.07-.2-.12-.41-.19-.63a6.79 6.79 0 0 1 -1.65-12.9 7.91 7.91 0 0 1 -.59-2 5.71 5.71 0 0 1 4.39-6.38l13-3.21a12 12 0 0 1 8.17 22.38z" fill="#34a0a4"/><path d="m56.5 60.39h13.5a2.64 2.64 0 0 0 2.55-3.45 6 6 0 0 0 -5.64-4c-1 0-.3-.11-12.21 2.84a1.81 1.81 0 0 0 -1.27 2.38 3.25 3.25 0 0 0 3.07 2.23z" fill="#34cda4"/><path d="m73.21 70.19-13.21 6.5a7.14 7.14 0 0 1 -9.83-3.69c-.2-.59-.11-.36-.22-.71a6.78 6.78 0 0 1 -5.26-4.35 1.79 1.79 0 0 1 2.72-2.06 6.84 6.84 0 0 0 2.54 1c.07.22.12.42.19.62a7.13 7.13 0 0 0 9.86 3.75l13.2-6.5a11.94 11.94 0 0 0 6.38-8 12 12 0 0 1 -6.37 13.44z" fill="#3473a4"/><path d="m1.27 83.79a18.58 18.58 0 0 1 13-24.41l50.52-12.54a13 13 0 0 1 8.86 24.25l-46.74 23a18.57 18.57 0 0 1 -25.64-10.3zm66.63-35.33c-1.91 0 2-.83-53.18 12.86a16.58 16.58 0 0 0 -11.57 21.79 16.57 16.57 0 0 0 22.85 9.18l46.74-23a11 11 0 0 0 -4.84-20.83z" fill="#302d3d"/><path d="m49.16 73.14a7.8 7.8 0 0 1 -2.11-14.23 6.75 6.75 0 0 1 4.8-8.91l12.94-3.2a13 13 0 0 1 8.87 24.25l-13.21 6.5a8.12 8.12 0 0 1 -11.29-4.41zm18.73-24.68c-1.83 0-1.53 0-15.56 3.53a4.72 4.72 0 0 0 -3.64 5.21 7.23 7.23 0 0 0 .55 1.8 1 1 0 0 1 -.53 1.26 5.78 5.78 0 0 0 1.4 11 1 1 0 0 1 .8.7 6.08 6.08 0 0 0 8.65 3.8c.11 0-.85.41 13.21-6.5a11 11 0 0 0 -4.88-20.83z" fill="#302d3d"/><path d="m71.33 66.67a1 1 0 0 1 -.39-1.92c3.72-1.59 10-7.28 6.62-9.65-1.69-1.22-4.85-1.1-4.47-1.1a1 1 0 0 1 -1-1 1 1 0 0 1 1-1c2.86 0 6.21.81 7.19 3.48 1.89 5.13-7.74 11.19-8.95 11.19z" fill="#302d3d"/><path d="m50.14 72.91a8.91 8.91 0 0 1 .16-6.55" fill="#fff"/><path d="m50.14 73.91a1 1 0 0 1 -.94-.66 9.87 9.87 0 0 1 .17-7.25 1 1 0 1 1 1.85.77 7.88 7.88 0 0 0 -.15 5.81 1 1 0 0 1 -.93 1.33z" fill="#302d3d"/><path d="m62 68a6.71 6.71 0 0 1 -5-10.06 1 1 0 1 1 1.72 1 4.71 4.71 0 0 0 3.5 7.06 1 1 0 0 1 -.22 2z" fill="#302d3d"/></g></svg>