<svg width="531" height="685" viewBox="0 0 531 685" fill="none" xmlns="http://www.w3.org/2000/svg">
<path d="M375.651 638.848C372.918 640.255 370.183 641.648 367.432 643.019C333.833 659.802 292.994 649.906 270.791 619.611C220.048 550.392 171.086 481.826 127.036 413.436C103.379 376.702 115.046 327.507 152.732 305.395C177.63 290.784 203.327 277.741 229.821 266.262C269.911 248.892 316.512 268.509 332.2 309.284C361.412 385.21 387.858 465.204 413.792 547.014C425.14 582.819 409.032 621.628 375.651 638.848Z" fill="#F97316"/>
<path d="M240.358 261.3L150.101 305.779C59.3903 233.972 3.42938 167.03 43.1436 147.46C82.8452 127.894 118.663 174.11 118.663 174.11C118.663 174.11 69.5289 22.1198 155.433 19.0488C241.329 15.9872 240.358 261.3 240.358 261.3Z" fill="#A3F593"/>
<path d="M156.466 213.07C155.348 212.36 154.199 211.659 153.027 210.979C147.161 207.575 140.21 204.388 133.237 203.363C126.07 202.31 118.209 203.5 112.07 209.772L112.069 209.773C107.703 214.236 107.464 219.858 109.097 224.659C110.589 229.047 113.733 233.28 117.245 237.092C124.387 244.842 135.248 253.154 146.164 260.637C157.186 268.192 168.687 275.184 177.403 280.273C179.133 281.283 180.756 282.22 182.246 283.073L152.109 297.979C108.122 263.156 73.0382 229.952 53.5028 203.244C43.3879 189.415 38.078 178.169 37.1389 169.861C36.6878 165.87 37.2775 162.857 38.5373 160.517C39.792 158.188 42.0412 155.914 45.9797 153.966L45.9798 153.966C62.6253 145.731 78.8398 151 91.9331 159.507C98.4155 163.718 103.806 168.538 107.593 172.336C109.477 174.226 110.941 175.839 111.921 176.964C112.41 177.526 112.777 177.964 113.014 178.252C113.132 178.396 113.218 178.501 113.27 178.566C113.296 178.598 113.313 178.621 113.322 178.632L113.323 178.633L113.326 178.637C113.326 178.636 113.326 178.636 113.341 178.624L125.473 172.124C125.481 172.122 125.481 172.122 125.481 172.122L125.48 172.12L125.48 172.12L125.476 172.106L125.453 172.037C125.432 171.973 125.4 171.873 125.357 171.739C125.27 171.47 125.141 171.062 124.974 170.525C124.639 169.45 124.154 167.858 123.564 165.822C122.385 161.747 120.788 155.903 119.134 148.876C115.818 134.778 112.321 116.108 111.447 97.4708C110.565 78.6609 112.407 60.7805 119.002 47.6689C122.244 41.2245 126.577 36.0415 132.243 32.3595C132.363 32.2816 132.483 32.2044 132.604 32.1277C130.023 39.1913 128.744 47.5725 128.299 56.5189C127.236 77.8899 130.849 104.858 135.963 130.946C141.1 157.15 147.853 182.951 153.309 202.168C154.422 206.09 155.483 209.742 156.466 213.07Z" fill="#7BD067" stroke="#4F46E5" stroke-width="14"/>
<path d="M346.899 642.755C345.058 641.473 343.224 640.044 341.409 638.495C331.166 629.756 320.391 616.249 310.775 599.768L310.775 599.768C268.023 526.485 226.262 454.186 186.961 383.302C176.114 363.741 168.76 343.587 165.771 326.846C164.474 319.584 163.955 312.722 164.446 306.704C161.711 308.261 158.987 309.835 156.272 311.428L346.899 642.755ZM346.899 642.755C320.653 648.071 292.908 637.935 276.436 615.471C225.721 546.289 176.859 477.851 132.922 409.646C111.42 376.25 122.03 331.532 156.271 311.429L346.899 642.755Z" fill="#FFA75F" stroke="#665EF2" stroke-width="14"/>
<path d="M202 594C202 603.794 192.889 613 180 613C167.111 613 158 603.794 158 594C158 584.206 167.111 575 180 575C192.889 575 202 584.206 202 594Z" fill="#F97316" stroke="#4F46E5" stroke-width="14"/>
<path d="M428 307C428 316.794 418.889 326 406 326C393.111 326 384 316.794 384 307C384 297.206 393.111 288 406 288C418.889 288 428 297.206 428 307Z" fill="#F97316" stroke="#4F46E5" stroke-width="14"/>
</svg>
